<?xml version="1.0" standalone="no"?><!DOCTYPE svg PUBLIC "-//W3C//DTD SVG 1.1//EN" "http://www.w3.org/Graphics/SVG/1.1/DTD/svg11.dtd" ><svg xmlns="http://www.w3.org/2000/svg"><metadata></metadata><defs><font id="fonteditor" horiz-adv-x="1000"><font-face font-family="HarmonyOS Sans SC Medium" font-weight="500" font-stretch="normal" units-per-em="1000" panose-1="0 0 6 0 0 0 0 0 0 0" ascent="928" descent="-244" x-height="0" bbox="24 -89 978 862" underline-thickness="50" underline-position="-75" unicode-range="U+5165-901a" /><missing-glyph horiz-adv-x="1000"  /><glyph glyph-name="uni5165" unicode="&#x5165;" d="M546 695 Q569 480 668 316 Q767 152 962 21 L895 -64 Q737 53 641.5 179.5 Q546 306 499 475 Q407 185 99 -65 L28 15 Q233 169 333 334.5 Q433 500 456 676 Q447 690 427.5 695.5 Q408 701 374 701 L235 701 L235 799 L411 799 Q477 799 509 775 Q541 751 546 695 Z" /><glyph glyph-name="uni51FA" unicode="&#x51fa;" d="M797 60 L797 328 L891 328 L891 -74 L797 -74 L797 -30 L111 -30 L111 326 L206 326 L206 60 L453 60 L453 400 L140 400 L140 753 L233 753 L233 492 L453 492 L453 842 L547 842 L547 492 L768 492 L768 753 L861 753 L861 400 L547 400 L547 60 L797 60 Z" /><glyph glyph-name="uni52E4" unicode="&#x52e4;" d="M922 644 Q920 324 902 83 Q898 33 886 4.5 Q874 -24 849.5 -36.5 Q825 -49 781 -50 Q739 -50 685 -43 L669 46 Q716 37 756 37 Q792 37 805 56 Q818 75 822 124 Q829 214 833.5 332 Q838 450 839 552 L724 552 Q719 381 706.5 278.5 Q694 176 663.5 92 Q633 8 573 -89 L497 -35 L516 -6 L401 -13 L60 -35 L57 37 L269 49 L269 108 L95 108 L95 171 L269 171 L269 222 L74 222 L74 288 L269 288 L269 337 L82 337 L82 520 L269 520 L269 572 L145 572 L145 690 L52 690 L52 761 L145 761 L145 835 L227 835 L227 761 L386 761 L386 836 L470 836 L470 761 L571 761 L571 690 L470 690 L470 572 L349 572 L349 520 L532 520 L532 337 L349 337 L349 288 L537 288 L537 222 L349 222 L349 171 L519 171 L519 108 L349 108 L349 54 L518 65 L519 -1 Q569 78 593.5 149 Q618 220 628.5 309 Q639 398 643 552 L552 552 L552 644 L645 644 L649 836 L730 836 Q730 748 727 644 L922 644 ZM386 690 L227 690 L227 636 L386 636 L386 690 ZM164 462 L164 397 L269 397 L269 462 L164 462 ZM449 397 L449 462 L349 462 L349 397 L449 397 Z" /><glyph glyph-name="uni540D" unicode="&#x540d;" d="M877 654 Q794 559 692.5 484 Q591 409 460 346 L873 346 L873 -72 L782 -72 L782 -18 L329 -18 L329 -72 L237 -72 L237 254 Q150 224 72 201 L36 286 Q290 356 461.5 446 Q633 536 749 654 L386 654 Q386 654 358 626 L338 607 Q422 545 462 511 L404 439 Q335 498 268 547 Q194 490 138 454 L79 533 Q177 591 275 679.5 Q373 768 432 848 L525 821 Q496 779 466 742 L877 742 L877 654 ZM329 69 L782 69 L782 261 L329 261 L329 69 Z" /><glyph glyph-name="uni5468" unicode="&#x5468;" d="M140 801 L894 801 L894 62 Q894 8 883.5 -20.5 Q873 -49 847 -61 Q821 -73 772 -73 Q722 -73 665 -68 L649 18 Q703 12 759 12 Q779 12 788 17.5 Q797 23 800 37 Q803 51 803 81 L803 717 L231 717 L231 435 Q231 297 223 213.5 Q215 130 193 63 Q171 -4 126 -82 L37 -34 Q82 40 103 102 Q124 164 132 246 Q140 328 140 470 L140 801 ZM264 380 L264 457 L470 457 L470 543 L295 543 L295 617 L470 617 L470 694 L557 694 L557 617 L735 617 L735 543 L557 543 L557 457 L767 457 L767 380 L264 380 ZM321 312 L708 312 L708 49 L321 49 L321 312 ZM406 129 L624 129 L624 233 L406 233 L406 129 Z" /><glyph glyph-name="uni5BBF" unicode="&#x5bbf;" d="M183 660 L183 545 L90 545 L90 744 L466 744 Q446 790 422 832 L527 857 Q551 809 576 744 L910 744 L910 602 L817 602 L817 660 L183 660 ZM334 595 Q306 519 259 435 L259 -81 L168 -81 L168 294 Q120 228 67 175 L33 278 Q95 340 154.5 434.5 Q214 529 249 623 L334 595 ZM912 489 L673 489 L667 466 Q654 417 648 401 L872 401 L872 -75 L781 -75 L781 -27 L474 -27 L474 -76 L382 -76 L382 401 L548 401 Q564 457 572 489 L354 489 L354 569 L912 569 L912 489 ZM474 225 L781 225 L781 324 L474 324 L474 225 ZM474 150 L474 49 L781 49 L781 150 L474 150 Z" /><glyph glyph-name="uni5FB7" unicode="&#x5fb7;" d="M316 795 Q275 728 212 649.5 Q149 571 88 512 L39 591 Q92 644 150.5 716 Q209 788 244 845 L316 795 ZM339 621 L573 621 L573 684 L322 684 L322 761 L573 761 L573 842 L662 842 L662 761 L936 761 L936 684 L662 684 L662 621 L904 621 L904 381 L339 381 L339 621 ZM307 543 Q279 486 237 423 L237 -75 L150 -75 L150 305 Q108 253 65 212 L29 300 Q80 351 141 435.5 Q202 520 237 589 L307 543 ZM504 551 L417 551 L417 450 L504 450 L504 551 ZM667 450 L667 551 L575 551 L575 450 L667 450 ZM740 450 L826 450 L826 551 L740 551 L740 450 ZM949 320 L949 242 L637 242 Q675 199 720 141 L658 91 Q639 118 609 155.5 Q579 193 564 210 L604 242 L301 242 L301 320 L949 320 ZM849 212 Q878 172 913.5 116 Q949 60 972 19 L901 -27 Q875 19 840.5 77 Q806 135 781 171 L849 212 ZM258 7 Q285 51 310 103.5 Q335 156 352 203 L426 177 Q407 127 380.5 68.5 Q354 10 330 -34 L258 7 ZM717 56 Q719 72 721 125 L801 112 Q801 102 799 82 L796 27 Q794 -4 784.5 -20.5 Q775 -37 753.5 -45 Q732 -53 691 -56 Q655 -59 619 -59 Q582 -59 546 -56 Q493 -51 470.5 -33 Q448 -15 448 34 L448 198 L528 198 L528 59 Q528 37 536 30 Q544 23 567 21 Q599 19 615 19 Q634 19 674 21 Q698 23 707 30 Q716 37 717 56 Z" /><glyph glyph-name="uni6392" unicode="&#x6392;" d="M779 206 L964 206 L964 110 L779 110 L779 -76 L691 -76 L691 832 L779 832 L779 680 L943 680 L943 586 L779 586 L779 443 L930 443 L930 350 L779 350 L779 206 ZM256 570 L256 430 Q263 433 268.5 435.5 Q274 438 278 440 L326 461 L326 369 Q284 348 256 335 L256 45 Q256 -17 235.5 -43 Q215 -69 162 -69 Q115 -69 61 -61 L42 25 Q96 16 131 16 Q150 16 158 29.5 Q166 43 166 74 L166 294 Q96 261 56 245 L32 338 Q38 340 45 343 Q52 346 61 350 Q136 379 166 392 L166 570 L58 570 L58 661 L166 661 L166 828 L256 828 L256 661 L333 661 L333 570 L256 570 ZM365 680 L503 680 L503 825 L591 825 L591 -73 L503 -73 L503 110 L328 110 L328 206 L503 206 L503 350 L361 350 L361 443 L503 443 L503 585 L365 585 L365 680 Z" /><glyph glyph-name="uni65B0" unicode="&#x65b0;" d="M513 268 L338 268 L338 27 Q338 -12 329.5 -33 Q321 -54 301 -63 Q281 -72 244 -73 Q196 -73 163 -68 L147 16 Q163 14 170 14 Q200 10 216 10 Q240 10 245.5 21 Q251 32 251 68 L251 268 L59 268 L59 348 L251 348 L251 446 L44 446 L44 527 L164 527 Q152 588 135 664 L68 664 L68 745 L254 745 L216 831 L302 853 Q327 802 349 745 L513 745 L513 664 L452 664 Q439 598 419 527 L525 527 L525 446 L338 446 L338 348 L513 348 L513 268 ZM959 516 L959 429 L859 429 L859 -73 L771 -73 L771 429 L653 429 L653 415 Q653 284 644.5 203 Q636 122 611 55 Q586 -12 536 -89 L454 -34 Q503 31 526.5 91 Q550 151 558.5 228 Q567 305 567 434 L567 748 Q661 757 754 776 Q847 795 911 820 L940 735 Q886 715 806.5 696.5 Q727 678 653 669 L653 516 L959 516 ZM212 664 Q232 578 241 527 L338 527 Q355 586 371 664 L212 664 ZM443 234 Q461 195 491 114 Q496 102 500 91.5 Q504 81 508 72 L432 40 Q418 87 372 208 L443 234 ZM204 211 Q183 146 156 81.5 Q129 17 102 -28 L31 7 Q58 51 83.5 111 Q109 171 128 232 L204 211 Z" /><glyph glyph-name="uni6700" unicode="&#x6700;" d="M171 810 L830 810 L830 519 L171 519 L171 810 ZM742 692 L742 741 L260 741 L260 692 L742 692 ZM260 635 L260 585 L742 585 L742 635 L260 635 ZM546 30 Q526 26 481 22 L481 -81 L397 -81 L397 11 Q95 -26 60 -32 L52 43 Q62 44 136 53 L136 397 L47 397 L47 468 L954 468 L954 397 L481 397 L481 97 Q522 101 542 105 L546 30 ZM397 331 L397 397 L221 397 L221 331 L397 331 ZM925 -81 Q811 -35 736 28 Q658 -37 555 -81 L515 -5 Q609 36 675 86 Q611 158 569 266 L533 266 L533 339 L909 339 L909 261 Q864 161 797 86 Q858 42 963 4 L925 -81 ZM397 268 L221 268 L221 201 L397 201 L397 268 ZM652 266 Q686 189 734 139 Q785 193 817 266 L652 266 ZM221 141 L221 64 L397 86 L397 141 L221 141 Z" /><glyph glyph-name="uni672C" unicode="&#x672c;" d="M614 587 Q676 451 760.5 344.5 Q845 238 971 141 L904 60 Q665 265 549 551 L549 182 L751 182 L751 94 L549 94 L549 -81 L450 -81 L450 94 L250 94 L250 182 L450 182 L450 553 Q394 415 310 298 Q226 181 92 52 L29 128 Q154 237 239.5 347 Q325 457 384 587 L79 587 L79 677 L450 677 L450 837 L549 837 L549 677 L922 677 L922 587 L614 587 Z" /><glyph glyph-name="uni6821" unicode="&#x6821;" d="M936 712 L936 623 L404 623 L404 712 L628 712 Q604 771 579 825 L672 849 Q701 779 722 712 L936 712 ZM328 302 L262 395 L262 -80 L173 -80 L173 369 Q122 241 65 146 L24 245 Q116 402 169 560 L56 560 L56 650 L173 650 L173 831 L262 831 L262 650 L364 650 L364 560 L262 560 L262 503 L332 428 Q385 369 387 367 L328 302 ZM609 562 Q538 448 438 343 L371 400 Q462 498 532 613 L609 562 ZM776 613 Q867 516 951 411 L885 347 Q791 467 710 558 L776 613 ZM719 156 Q803 73 962 7 L910 -82 Q753 -9 659 88 Q562 -10 403 -89 L352 -3 Q510 69 600 157 Q532 246 483 377 L566 410 Q611 296 660 226 Q714 301 753 412 L837 377 Q790 251 719 156 Z" /><glyph glyph-name="uni7247" unicode="&#x7247;" d="M911 495 L289 495 Q289 434 285 342 L762 342 L762 -75 L669 -75 L669 253 L277 253 Q265 150 237 72 Q209 -6 155 -85 L63 -30 Q117 44 145 118 Q173 192 184 286 Q195 380 195 526 L195 819 L289 819 L289 584 L607 584 L607 833 L700 833 L700 584 L911 584 L911 495 Z" /><glyph glyph-name="uni73ED" unicode="&#x73ed;" d="M517 834 L601 834 L601 448 Q601 314 579 219 Q557 124 513.5 53 Q470 -18 400 -88 L323 -34 Q396 37 437 99 Q478 161 497.5 241.5 Q517 322 517 440 L517 834 ZM829 351 L829 54 L959 54 L959 -36 L602 -36 L602 54 L738 54 L738 351 L647 351 L647 442 L738 442 L738 690 L644 690 L644 781 L939 781 L939 690 L829 690 L829 442 L935 442 L935 351 L829 351 ZM360 87 Q300 70 210 44.5 Q120 19 57 0 L41 93 Q83 103 161 124 L161 370 L66 370 L66 462 L161 462 L161 674 L58 674 L58 764 L355 764 L355 674 L249 674 L249 462 L332 462 L332 370 L249 370 L249 149 Q285 158 307 164.5 Q329 171 340 174 Q351 178 360 180 L360 87 ZM360 252 Q383 441 383 643 L383 684 L459 684 Q457 447 439 245 L360 252 Z" /><glyph glyph-name="uni77E5" unicode="&#x77e5;" d="M346 362 Q343 336 335 297 Q384 240 434 172 Q484 104 517 42 L445 -22 Q419 27 380 88.5 Q341 150 305 197 Q253 57 120 -76 L48 -10 Q144 84 191 169.5 Q238 255 253 362 L61 362 L61 448 L262 448 Q268 538 268 628 L200 628 Q169 548 135 490 L55 533 Q94 596 125 679 Q156 762 175 844 L263 824 Q246 759 232 718 L500 718 L500 628 L361 628 Q359 511 354 448 L513 448 L513 362 L346 362 ZM555 -53 L555 751 L910 751 L910 -54 L819 -54 L819 38 L645 38 L645 -54 L555 -53 ZM645 664 L645 125 L819 125 L819 664 L645 664 Z" /><glyph glyph-name="uni7A0B" unicode="&#x7a0b;" d="M359 200 Q316 260 273 315 L273 -78 L189 -78 L189 301 Q140 181 82 96 L35 177 Q81 245 119 323 Q157 401 183 477 L58 477 L58 566 L189 566 L189 686 Q121 674 69 666 L61 754 Q132 764 223 782.5 Q314 801 379 820 L398 732 Q357 720 273 702 L273 566 L393 566 L393 477 L273 477 L273 420 Q311 382 352 337.5 Q393 293 409 271 L359 200 ZM445 792 L897 792 L897 504 L445 504 L445 792 ZM534 584 L808 584 L808 711 L534 711 L534 584 ZM716 155 L716 43 L962 43 L962 -41 L375 -41 L375 43 L624 43 L624 155 L437 155 L437 235 L624 235 L624 340 L422 340 L422 422 L931 422 L931 340 L716 340 L716 235 L906 235 L906 155 L716 155 Z" /><glyph glyph-name="uni7EA7" unicode="&#x7ea7;" d="M120 466 Q99 463 55 455 L37 542 Q60 551 78 575 Q108 615 150 693 Q192 771 225 843 L301 809 Q268 739 227.5 665.5 Q187 592 155 544 Q227 556 263 561 Q296 618 322 670 L396 631 Q358 557 296.5 460 Q235 363 189 305 Q299 329 370 345 L374 267 Q298 251 146 217 Q98 207 74 201 L52 290 Q72 297 85.5 307.5 Q99 318 114 336 Q153 385 216 482 L120 466 ZM772 164 Q858 77 978 10 L930 -78 Q799 7 714 97 Q624 2 473 -85 L416 -11 Q565 69 658 163 Q583 260 540 385 Q525 251 483.5 147.5 Q442 44 355 -68 L281 -15 Q352 73 390 153.5 Q428 234 444 321.5 Q460 409 468 539 Q471 584 473 700 L389 700 L389 787 L859 787 L859 700 L781 531 L913 531 L913 445 Q856 275 772 164 ZM553 622 Q579 499 618.5 402.5 Q658 306 715 230 Q782 319 827 445 L691 445 L691 522 L770 700 L556 700 L553 622 ZM345 74 Q153 20 52 -3 L36 83 Q162 112 339 162 L345 74 Z" /><glyph glyph-name="uni7EDF" unicode="&#x7edf;" d="M957 172 Q957 112 950 42 Q945 -11 924 -31.5 Q903 -52 853 -55 Q836 -57 808 -57 Q781 -57 765 -55 Q716 -51 694.5 -28.5 Q673 -6 673 55 L673 375 L574 365 Q574 327 573 313 Q569 212 550 146 Q531 80 487 26.5 Q443 -27 360 -81 L302 -6 Q380 42 417.5 82.5 Q455 123 469.5 175 Q484 227 485 318 L486 355 L463 352 Q431 349 379 341 L357 423 Q387 430 401 448 Q443 491 542 645 L372 645 L372 732 L600 732 Q577 800 564 832 L658 852 Q669 824 701 732 L933 732 L933 645 L644 645 Q542 485 499 437 Q677 455 766 466 L700 556 L768 600 Q801 559 853 486.5 Q905 414 939 362 L869 314 Q846 350 830 372 L818 390 L759 384 L759 72 Q759 47 765 39.5 Q771 32 788 30 L811 29 Q837 29 848.5 31 Q860 33 865 40.5 Q870 48 873 66 Q879 96 879 153 Q879 177 878 189 L957 172 ZM107 451 Q83 450 59 442 L39 531 Q50 534 57 539.5 Q64 545 73 555 Q97 586 140.5 672.5 Q184 759 213 833 L299 803 Q270 735 227 654 Q184 573 158 539 Q182 542 268 552 Q302 613 314 639 L394 601 Q358 527 300 431 Q242 335 207 289 Q237 295 358 324 L359 237 Q280 221 231 209 L141 190 L81 176 L59 263 Q72 267 87 277 Q102 287 111 300 Q161 374 217 464 L107 451 ZM381 60 Q334 48 165 10 Q135 4 50 -16 L32 78 Q80 86 200 112.5 Q320 139 375 154 L381 60 Z" /><glyph glyph-name="uni8003" unicode="&#x8003;" d="M945 476 L595 476 Q544 436 477 393 L885 393 L885 315 L392 315 L376 236 L807 236 Q803 203 792.5 142 Q782 81 775 52 Q759 -13 727 -42.5 Q695 -72 629 -73 L594 -73 Q492 -73 411 -65 L394 21 Q512 6 585 6 Q626 6 645 20 Q664 34 678 74 Q692 121 696 158 L264 158 L286 286 Q186 238 65 190 L28 281 Q266 361 442 476 L51 476 L51 557 L367 557 L367 652 L142 652 L142 734 L367 734 L367 837 L467 837 L467 734 L661 734 L661 654 Q730 723 795 814 L873 761 Q794 652 692 557 L945 557 L945 476 ZM467 557 L554 557 Q609 600 659 652 L467 652 L467 557 Z" /><glyph glyph-name="uni80B2" unicode="&#x80b2;" d="M953 758 L953 677 L720 677 Q758 646 848 569 Q870 549 912 513 L853 446 Q842 457 814 481 L786 507 L672 503 Q420 495 253 486 Q187 482 118 476 L102 562 Q132 565 171 585 Q234 617 313 677 L47 677 L47 758 L462 758 Q453 778 425 837 L523 862 L572 758 L953 758 ZM704 579 Q649 627 624 646 L656 677 L446 677 Q365 611 289 557 L704 579 ZM165 -70 L165 439 L834 439 L834 50 Q834 3 823 -23 Q812 -49 785 -60.5 Q758 -72 708 -73 Q646 -74 572 -66 L558 13 Q626 4 694 4 Q727 4 736 16.5 Q745 29 745 65 L745 81 L255 81 L255 -70 L165 -70 ZM745 294 L745 365 L255 365 L255 294 L745 294 ZM255 225 L255 153 L745 153 L745 225 L255 225 Z" /><glyph glyph-name="uni820D" unicode="&#x820d;" d="M744 525 L549 525 L549 432 L913 432 L913 351 L549 351 L549 257 L829 257 L829 -78 L735 -78 L735 -33 L263 -33 L263 -78 L169 -78 L169 257 L451 257 L451 351 L86 351 L86 432 L451 432 L451 525 L256 525 L256 572 Q176 527 75 485 L36 575 Q178 626 280.5 691 Q383 756 459 843 L542 843 Q686 677 962 580 L921 491 Q823 531 744 575 L744 525 ZM501 754 Q427 675 311 604 L694 604 Q573 678 501 754 ZM263 49 L735 49 L735 175 L263 175 L263 49 Z" /><glyph glyph-name="uni8282" unicode="&#x8282;" d="M706 839 L706 726 L948 726 L948 632 L706 632 L706 533 L611 533 L611 632 L387 632 L387 533 L292 533 L292 632 L49 632 L49 726 L292 726 L292 839 L387 839 L387 726 L611 726 L611 839 L706 839 ZM96 396 L96 488 L861 488 Q860 332 845 193 Q839 133 823.5 100 Q808 67 778.5 53 Q749 39 699 38 Q630 37 555 44 L536 137 Q621 126 664 125 Q705 125 721 146.5 Q737 168 745 226 Q750 266 753.5 318.5 Q757 371 756 396 L449 396 L449 -81 L349 -81 L349 396 L96 396 Z" /><glyph glyph-name="uni884C" unicode="&#x884c;" d="M364 777 Q314 714 239 641 Q164 568 96 516 L46 603 Q104 644 174 712 Q244 780 292 840 L364 777 ZM437 784 L912 784 L912 694 L437 694 L437 784 ZM365 529 Q327 471 270 405 L270 -72 L177 -72 L177 303 Q120 245 69 201 L29 289 Q101 353 173.5 434 Q246 515 292 585 L365 529 ZM953 499 L953 408 L797 408 L797 70 Q797 -3 765.5 -34 Q734 -65 660 -67 L629 -67 Q568 -67 523 -62 L504 33 Q577 23 636 23 Q673 23 686 38.5 Q699 54 699 97 L699 408 L398 408 L398 499 L953 499 Z" /><glyph glyph-name="uni8BA1" unicode="&#x8ba1;" d="M273 595 Q181 704 114 779 L188 840 Q290 728 349 659 L273 595 ZM705 519 L954 519 L954 423 L705 423 L705 -77 L608 -77 L608 423 L359 423 L359 519 L608 519 L608 838 L705 838 L705 519 ZM272 116 L437 240 L469 147 L431 120 Q327 47 259 -7 Q233 -28 207 -52 L148 19 Q165 33 170.5 46 Q176 59 176 81 L176 431 L41 431 L41 527 L272 527 L272 116 Z" /><glyph glyph-name="uni8BFE" unicode="&#x8bfe;" d="M224 595 Q200 629 158 682 Q116 735 88 767 L163 824 Q189 794 229.5 744 Q270 694 300 654 L224 595 ZM733 234 Q777 183 833 138.5 Q889 94 967 46 L923 -37 Q769 70 670 194 L670 -77 L583 -77 L583 198 Q534 129 476 70 Q418 11 341 -50 L287 30 Q360 79 415 127 Q470 175 518 234 L313 234 L313 315 L583 315 L583 394 L364 394 L364 794 L891 794 L891 394 L670 394 L670 315 L946 315 L946 234 L733 234 ZM583 630 L583 718 L450 718 L450 630 L583 630 ZM670 630 L804 630 L804 718 L670 718 L670 630 ZM450 557 L450 470 L583 470 L583 557 L450 557 ZM670 557 L670 470 L804 470 L804 557 L670 557 ZM313 208 L350 126 Q249 40 211 2 Q198 -10 174 -36 L118 30 Q147 55 147 93 L147 432 L38 432 L38 524 L233 524 L233 134 L313 208 Z" /><glyph glyph-name="uni901A" unicode="&#x901a;" d="M221 582 Q195 617 148.5 676 Q102 735 76 765 L144 822 Q178 784 222 731 Q266 678 293 642 L221 582 ZM614 647 Q675 681 752 728 L342 728 L342 803 L885 803 L885 726 L829 691 L686 603 L904 603 L904 174 Q904 120 882.5 99 Q861 78 812 78 Q764 78 726 84 L712 162 Q751 155 788 154 Q805 154 812 165.5 Q819 177 819 206 L819 236 L667 236 L667 90 L583 90 L583 236 L435 236 L435 87 L350 87 L350 603 L544 603 L443 667 L487 726 L614 647 ZM583 453 L583 528 L435 528 L435 453 L583 453 ZM667 453 L819 453 L819 528 L667 528 L667 453 ZM519 29 Q623 23 726 23 Q823 23 959 30 L940 -57 Q827 -63 716 -63 Q613 -63 509 -57 Q437 -53 388 -39.5 Q339 -26 299.5 1 Q260 28 218 75 Q162 9 98 -63 L39 14 Q107 80 173 148 L173 413 L50 413 L50 501 L261 501 L261 154 Q295 109 328.5 84 Q362 59 406.5 46 Q451 33 519 29 ZM435 381 L435 307 L583 307 L583 381 L435 381 ZM667 381 L667 307 L819 307 L819 381 L667 381 Z" /></font>
</defs>
</svg>
