<?xml version="1.0" standalone="no"?>
<!DOCTYPE svg PUBLIC "-//W3C//DTD SVG 1.1//EN" "http://www.w3.org/Graphics/SVG/1.1/DTD/svg11.dtd" >
<!--
2013-9-30: Created.
-->
<svg>
<metadata>
Created by iconfont
</metadata>
<defs>

<font id="iconfont" horiz-adv-x="1024" >
  <font-face
    font-family="iconfont"
    font-weight="500"
    font-stretch="normal"
    units-per-em="1024"
    ascent="896"
    descent="-128"
  />
    <missing-glyph />
    
    <glyph glyph-name="x" unicode="x" horiz-adv-x="1001"
d="M281 543q-27 -1 -53 -1h-83q-18 0 -36.5 -6t-32.5 -18.5t-23 -32t-9 -45.5v-76h912v41q0 16 -0.5 30t-0.5 18q0 13 -5 29t-17 29.5t-31.5 22.5t-49.5 9h-133v-97h-438v97zM955 310v-52q0 -23 0.5 -52t0.5 -58t-10.5 -47.5t-26 -30t-33 -16t-31.5 -4.5q-14 -1 -29.5 -0.5
t-29.5 0.5h-32l-45 128h-439l-44 -128h-29h-34q-20 0 -45 1q-25 0 -41 9.5t-25.5 23t-13.5 29.5t-4 30v167h911zM163 247q-12 0 -21 -8.5t-9 -21.5t9 -21.5t21 -8.5q13 0 22 8.5t9 21.5t-9 21.5t-22 8.5zM316 123q-8 -26 -14 -48q-5 -19 -10.5 -37t-7.5 -25t-3 -15t1 -14.5
t9.5 -10.5t21.5 -4h37h67h81h80h64h36q23 0 34 12t2 38q-5 13 -9.5 30.5t-9.5 34.5q-5 19 -11 39h-368zM336 498v228q0 11 2.5 23t10 21.5t20.5 15.5t34 6h188q31 0 51.5 -14.5t20.5 -52.5v-227h-327z" />
    

    
    <glyph glyph-name="bofang" unicode="&#58899;" d="M512 832C264.576 832 64 631.424 64 384s200.576-448 448-448 448 200.576 448 448S759.424 832 512 832zM414.656 169.728 414.656 598.272l311.616-190.464L414.656 169.728z"  horiz-adv-x="1024" />

    
    <glyph glyph-name="zhanghu1" unicode="&#58982;" d="M508.3136 874.0864C233.6768 874.0864 11.0592 651.4688 11.0592 376.832s222.6176-497.2544 497.2544-497.2544S1005.568 102.1952 1005.568 376.832 782.9504 874.0864 508.3136 874.0864zM508.3136-101.9904c-124.3136 0-237.9776 47.7184-325.0176 123.0848 8.8064 162.2016 136.3968 290.816 297.1648 304.3328-83.968 13.312-148.2752 86.2208-148.2752 173.8752 0 97.28 78.848 176.128 176.128 176.128 97.28 0 176.128-78.848 176.128-176.128 0-87.8592-64.1024-160.5632-148.2752-173.8752 160.768-13.5168 288.3584-141.9264 297.1648-304.128C746.2912-54.0672 632.6272-101.9904 508.3136-101.9904z"  horiz-adv-x="1024" />

    
    <glyph glyph-name="htmal5icon22" unicode="&#58943;" d="M365.624235 203.515393 165.695786 403.443841 99.05297 336.801025 365.624235 70.22976 936.850128 641.45463 870.207311 708.097446Z"  horiz-adv-x="1024" />

    
    <glyph glyph-name="quxiao" unicode="&#58919;" d="M842.947458 117.883083 576.847937 383.986697 842.946434 650.116917c8.67559 8.674567 13.447267 20.208251 13.43908 32.477692-0.008186 12.232602-4.7727 23.715121-13.414521 32.332383-8.655124 8.677637-20.149922 13.450337-32.384571 13.4575-12.286838 0-23.808242-4.771677-32.474622-13.434987L512.019443 448.856124 245.88206 714.949504c-8.66331 8.66331-20.175505 13.434987-32.416294 13.434987-12.239765 0-23.75196-4.770653-32.414247-13.43294-8.66024-8.636704-13.428847-20.12434-13.437034-32.356942-0.008186-12.269441 4.76349-23.803125 13.437034-32.476669l266.135336-266.13022L181.050496 117.88206c-8.664334-8.66331-13.43601-20.173458-13.43601-32.41527 0-12.239765 4.7727-23.752983 13.437034-32.417317 8.662287-8.66331 20.173458-13.43294 32.413224-13.43294 12.240789 0 23.754007 4.770653 32.416294 13.43294l266.134313 266.100544 266.101567-266.100544c8.66331-8.66331 20.185738-13.43294 32.4429-13.43294 12.265348 0.008186 23.74889 4.771677 32.369222 13.412474C860.81643 70.918445 860.821547 100.008994 842.947458 117.883083z"  horiz-adv-x="1024" />

    
    <glyph glyph-name="paixingbang" unicode="&#59325;" d="M1002.624-85.269333 21.354667-85.269333C9.557333-85.269333 0-94.826667 0-106.624 0-118.442667 9.557333-128 21.354667-128l981.269333 0C1014.464-128 1024-118.442667 1024-106.624 1024-94.826667 1014.464-85.269333 1002.624-85.269333zM757.290667-29.866667l245.333333 0c11.84 0 21.376 9.557333 21.354667 21.376L1023.978667 334.933333c0 11.818667-9.514667 21.376-21.376 21.376L757.290667 356.309333c-11.84 0-21.354667-9.557333-21.354667-21.376l0-343.445333C735.936-20.309333 745.450667-29.866667 757.290667-29.866667zM778.666667 313.578667l202.581333 0 0-300.714667L778.666667 12.864 778.666667 313.578667zM389.333333-29.866667l245.312 0c11.861333 0 21.376 9.557333 21.376 21.376L656.021333 874.645333C656.021333 886.442667 646.506667 896 634.645333 896L389.333333 896c-11.797333 0-21.354667-9.557333-21.354667-21.354667l0-883.136C367.978667-20.309333 377.536-29.866667 389.333333-29.866667zM410.709333 853.269333l202.581333 0 0-840.405333-202.581333 0L410.709333 853.269333zM21.354667-29.866667l245.333333 0c11.797333 0 21.376 9.557333 21.333333 21.376L288.021333 531.2c0 11.776-9.578667 21.354667-21.354667 21.354667L21.354667 552.554667C9.557333 552.554667 0 542.997333 0 531.2l0-539.690667C0-20.309333 9.557333-29.866667 21.354667-29.866667zM42.730667 509.824l202.581333 0 0-496.938667L42.730667 12.885333 42.730667 509.824z"  horiz-adv-x="1024" />

    
    <glyph glyph-name="tianjia" unicode="&#58911;" d="M212.992 369.664 212.992 369.664 212.992 369.664 215.04 369.664 212.992 369.664ZM69.632 816.128l0-866.304 868.352 0L937.984 816.128 69.632 816.128zM720.896 334.848 552.96 334.848l0-167.936c0-28.672-22.528-51.2-49.152-51.2-28.672 0-51.2 22.528-51.2 51.2l0 167.936L286.72 334.848c-28.672 0-51.2 22.528-51.2 51.2 0 28.672 22.528 49.152 51.2 49.152l165.888 0 0 167.936c0 28.672 22.528 51.2 51.2 51.2 26.624 0 49.152-22.528 49.152-51.2l0-167.936 167.936 0c28.672 0 51.2-20.48 51.2-49.152C770.048 355.328 747.52 334.848 720.896 334.848z"  horiz-adv-x="1024" />

    
    <glyph glyph-name="geren" unicode="&#58930;" d="M511.999 830.71c-246.685 0-446.709-199.99-446.709-446.709 0-246.711 200.025-446.71 446.709-446.71 246.65 0 446.709 199.999 446.709 446.71 0 246.719-199.99 446.709-446.709 446.709v0zM511.999 528.379v0 0zM512.156 245.207c-0.21-0.68-0.245-1.396-0.332-2.103 0.017 0.68 0.122 1.44 0.332 2.103v0zM748.109 110.522l-4.241 0.349c-11.534 2.495-20.189 11.831-21.899 23.26-6.666 45.927-28.774 89.848-62.243 123.683-40.396 40.84-92.779 63.464-147.467 63.647-55.001-0.105-107.471-22.685-148.023-63.647-33.346-33.739-55.42-77.652-62.208-123.71-1.693-11.543-10.173-20.634-21.674-23.155l-4.432-0.41-3.211 0.149c-15.756 2.128-26.488 16.21-24.429 31.304 3.77 28.313 12.076 55.726 24.726 81.49 2.46 5.016 5.079 9.972 7.834 14.806 12.25 20.634 27.012 39.515 43.956 56.222 3.786 3.664 7.625 7.233 11.586 10.714 21.969 19.291 46.364 34.586 72.8 45.762-6.16 4.668-12.092 9.85-17.624 15.347-32.194 32.247-49.923 75.077-49.923 120.639 0 45.517 17.764 88.338 49.923 120.62 31.636 31.574 73.568 49.329 118.081 49.923h4.363c44.653-0.663 86.568-18.384 118.064-49.923 32.246-32.186 49.958-75.042 49.958-120.62 0-45.474-17.782-88.304-49.907-120.585-5.671-5.61-11.517-10.723-17.659-15.348 26.488-11.193 50.935-26.549 72.851-45.814 3.926-3.437 7.678-6.997 11.483-10.592 17.066-16.761 31.829-35.606 43.939-56.161 2.862-5.052 5.549-9.973 7.956-15.042 12.529-25.424 20.87-52.811 24.745-81.375 1.046-7.216-0.803-14.476-5.306-20.469s-11.027-9.841-18.443-10.88l-3.595-0.192 0.017 0.009zM510.132 396.974c0.821 0.35 1.989 0.612 3.333 0.612h0.402c-1.275-0.097-2.548-0.255-3.735-0.612v0zM511.999 528.457v0zM635.7 457.804c0.122 0.567 0.314 1.17 0.523 1.745 2.095 8.804 3.316 18.034 3.316 27.475 0 9.467-1.186 18.68-3.316 27.701-0.209 0.646-0.349 1.23-0.523 1.85-14.030 54.757-65.698 98.338-123.386 98.338h-0.646c-57.724 0-109.304-43.581-123.386-98.338-0.122-0.636-0.332-1.23-0.436-1.85-2.199-8.995-3.35-18.244-3.35-27.701 0-9.467 1.186-18.654 3.35-27.475 0.122-0.576 0.314-1.178 0.436-1.745 13.977-53.475 65.105-93.295 122.461-93.739h2.513c57.304 0.507 108.379 40.3 122.426 93.739h0.017zM510.132 396.974c1.17 0.385 2.409 0.612 3.734 0.612h-0.402c-1.361-0.097-2.46-0.29-3.332-0.612v0zM510.132 396.974z"  horiz-adv-x="1024" />

    
    <glyph glyph-name="xiangyou-copy" unicode="&#58922;" d="M250.767 849.078c15.631 15.604 40.939 15.604 56.565 0l476.156-434.907c8.359-8.332 11.882-19.356 11.338-30.225 0.545-10.869-2.978-21.919-11.338-30.225l-476.156-434.907c-15.627-15.577-40.934-15.577-56.565 0-15.627 15.578-15.627 40.861 0 56.438l447.461 408.695-447.461 408.721c-15.63 15.577-15.63 40.833 0 56.409z"  horiz-adv-x="1025" />

    
    <glyph glyph-name="pdf" unicode="&#58934;" d="M632 789.5 803.7 656 632 656 632 789.5M624 816l-8 0 0-176 224 0 0 8L624 816 624 816zM741.2 220.7c-7.6 10.1-22.5 16.1-44.3 17.6-51.9 3.7-93.1-7-97.1-8.1-4.8 2.7-69.5 41-101.8 129.5 1.5 3.6 15.8 39.8 8 87.1l-0.8 4.6-0.8-4.6c-3.9-21.7-10.9-54.2-15-60.9-2 7.7-11 43.5-13.1 74.4-1.6 23 3.2 44.2 10.1 45.3 2.8 0.5 5.5-0.6 8.1-3.1 9.3-9.2 14.1-35.7 12.6-44.9l-0.6-3.3 2 2.7c0.2 0.3 5.5 7.8 5.5 27.7 0 10.8-9 28-33.2 28-8.2 0-14.1-2.3-18.4-7.2-7.9-8.9-10.1-26.4-6.7-53.5 6.1-49.2 20.3-101.5 21.5-105.8-4.6-10.1-130.6-284.9-182.5-284.9-0.7 0-1.5 0.1-2.2 0.2-2.6 32.5 79.9 95.9 80.7 96.5l3.5 2.7-4.2-1.3c-0.6-0.2-59.6-18.4-94.9-79.2-2.1-3.6-5.1-10.6-1.8-17.4 3.6-7.2 13.5-11.9 29.4-13.7 0.5-0.1 1-0.1 1.5-0.1 20 0 66.9 41.3 107.1 122.5 6.1 2 98.6 32.6 174.8 40.6 6.7-3.5 105.4-55.3 141.9-36.9 7.3 3.7 11.6 9.9 12.9 18.6l0.4 2.4-1.7-1.7c-0.2-0.2-24.4-22.6-115.6 23.4 14.5 1.8 87 9.4 118.3-16.5l1-0.8 0.3 1.3C746.3 202.5 748.1 211.6 741.2 220.7zM568 224.5c-13.5-2.2-98.9-17-147.4-39.5 8.6 15.7 58.2 107.4 65.9 137C491.4 311.7 514.7 266.3 568 224.5zM512 743.8 512 760 448 760 448 664 464 664 464 704 504 704 504 720 464 720 464 744ZM417.5 749.3c-3.8 4.2-8.5 7.2-13.9 8.8-4 1.2-9.9 1.8-17.5 1.8l-33.9 0 0-96 34.9 0c6.9 0 12.3 0.7 16.4 2 5.5 1.8 9.8 4.4 13 7.7 4.3 4.3 7.5 10 9.9 17 1.9 5.7 2.8 12.5 2.8 20.4 0 9-1 16.5-3 22.7C424.3 739.9 421.4 745.1 417.5 749.3zM408.3 694.3c-1.3-4.3-2.9-7.4-4.9-9.3-2-1.9-4.5-3.2-7.5-4-2.3-0.6-6-0.9-11.2-0.9L368 680l0 64c0 0 22.8-0.3 26.4-1.2 3.5-0.8 6.3-2.3 8.6-4.5 2.3-2.2 4-5.3 5.3-9.3 1.3-4 1.9-9.7 1.9-17.1C410.1 704.5 409.5 698.7 408.3 694.3zM315.9 758.6c-3.4 1-10.8 1.4-22.1 1.4L264 760l0-96 18.6 0 0 36.2 12.1 0c8.4 0 14.8 0.5 19.3 1.4 3.3 0.7 6.5 2.3 9.6 4.6 3.2 2.3 5.8 5.4 7.8 9.5s3.1 9 3.1 14.9c0 7.6-1.8 13.9-5.3 18.7C325.5 754 321.1 757.1 315.9 758.6zM313.2 722.7c-1.4-2.1-3.3-3.7-5.8-4.7-2.5-1-7.4-1.5-14.7-1.5l-10.2 0 0 27.2 9 0c6.7 0 11.1-0.2 13.4-0.7 3-0.6 5.5-2 7.5-4.3 2-2.3 2.9-5.2 2.9-8.7C315.3 727.4 314.6 724.9 313.2 722.7zM576 800l0-184 0-16 16 0 232 0 0-632L200-32 200 800 576 800M592 816 184 816l0-864 656 0L840 616 592 616 592 816 592 816z"  horiz-adv-x="1024" />

    
    <glyph glyph-name="bangongruanjianexcel" unicode="&#58935;" d="M304 96l416 0 0-16-416 0 0 16ZM304 168l416 0 0-16-416 0 0 16ZM584.5 488 524.4 422 491.6 488 408.9 488 475.5 371.6 360 248 439.2 248 505.7 322.3 543.8 248 626.9 248 555.9 374.3 664 488ZM456.8 744.5c10.8 0 15.7-3.9 17.4-13.4l19.1 0.8c-0.6 17-12.5 28.1-36.3 28.1-5.6 0-33-0.6-33-24 0-7.3 1.4-15.5 7.2-20.5 4.1-3.6 11.2-7.1 21.5-9.2 21.4-4.3 24.3-10.4 24.1-13.7-0.5-10.6-6.3-12.8-18.6-12.8-5.8 0-10.4 1.4-13.8 4.3-3.4 2.9-5.7 7.4-6.8 13.5l-18.6-1.8c1.2-10.4 5.1-18.3 11.5-23.7 6.4-5.4 15.6-8.1 27.5-8.1 8.2 0 15.1 1.1 20.6 3.4 5.5 2.3 9.8 5.7 12.8 10.3 3 4.7 4.5 9.6 4.5 14.9 0 25.3-26.3 28.9-34.8 30.9-9.3 2.2-15.1 4.2-17.5 6.2-1.9 1.6-2.8 3.4-2.8 5.6C440.8 738.6 443.5 744.5 456.8 744.5zM408 680 360 680 360 760 344 760 344 664 408 664ZM328 760 304 760 284.3 728.6 264 760 240 760 272.3 714.1 240 664 264 664 283.9 697.7 304 664 328 664 295.6 713.4ZM632 789.5 803.7 656 632 656 632 789.5M624 816l-8 0 0-176 224 0 0 8L624 816 624 816zM576 800l0-184 0-16 16 0 232 0 0-632L200-32 200 800 576 800M592 816 184 816l0-864 656 0L840 616 592 616 592 816 592 816z"  horiz-adv-x="1024" />

    
    <glyph glyph-name="bangongruanjianppt" unicode="&#58936;" d="M304 96l416 0 0-16-416 0 0 16ZM304 168l416 0 0-16-416 0 0 16ZM630 468c-7.9 12.5-19.2 20.6-33.7 24.3-9.5 2.5-30.5 3.7-63.2 3.7l-86.2 0L400 248l53.7 0 17.7 93.5 35 0c24.3 0 43.1 1.2 56.4 3.6 9.8 1.9 19.8 5.8 30.1 11.7 10.3 5.9 19.3 14.1 27.2 24.5 7.9 10.4 13.3 23.2 16.2 38.4C640 439.4 637.9 455.5 630 468zM580.8 419c-1.4-7.3-4.6-13.8-9.7-19.3-5.1-5.5-11.5-9.6-19.1-12.2-7.6-2.6-22-3.9-43.2-3.9l-29.4 0 13.3 70.4 25.9 0c19.4 0 32.1-0.6 38.3-1.7 8.4-1.5 14.9-5.1 19.5-11C581.1 435.5 582.5 428.1 580.8 419zM423.9 760 423.9 743.8 450.8 743.8 450.8 664 469.1 664 469.1 743.8 496 743.8 496 760ZM394.4 758.6c-3.4 1-10.6 1.4-21.8 1.4l-29.4 0 0-96 18.3 0 0 36.2 11.9 0c8.3 0 14.6 0.5 19 1.4 3.2 0.7 6.4 2.3 9.5 4.6 3.1 2.3 5.7 5.4 7.7 9.5 2 4 3 9 3 14.9 0 7.6-1.7 13.9-5.3 18.7C403.9 754 399.6 757.1 394.4 758.6zM391.8 722.7c-1.4-2.1-3.3-3.7-5.7-4.7-2.4-1-7.3-1.5-14.5-1.5l-10 0 0 27.2 8.9 0c6.6 0 11-0.2 13.2-0.7 3-0.6 5.4-2 7.4-4.3 1.9-2.3 2.9-5.2 2.9-8.7C393.8 727.4 393.1 724.9 391.8 722.7zM307.2 758.6c-3.4 1-10.7 1.4-21.8 1.4L256 760l0-96 18.3 0 0 36.2 11.9 0c8.3 0 14.6 0.5 19 1.4 3.2 0.7 6.4 2.3 9.5 4.6 3.1 2.3 5.7 5.4 7.7 9.5 2 4 3 9 3 14.9 0 7.6-1.8 13.9-5.3 18.7C316.8 754 312.4 757.1 307.2 758.6zM304.6 722.7c-1.4-2.1-3.3-3.7-5.7-4.7-2.4-1-7.3-1.5-14.5-1.5l-10 0 0 27.2 8.9 0c6.6 0 11-0.2 13.2-0.7 3-0.6 5.4-2 7.4-4.3 1.9-2.3 2.9-5.2 2.9-8.7C306.6 727.4 305.9 724.9 304.6 722.7zM632 789.5 803.7 656 632 656 632 789.5M624 816l-8 0 0-176 224 0 0 8L624 816 624 816zM576 800l0-184 0-16 16 0 232 0 0-632L200-32 200 800 576 800M592 816 184 816l0-864 656 0L840 616 592 616 592 816 592 816z"  horiz-adv-x="1024" />

    
    <glyph glyph-name="bangongruanjianword" unicode="&#58937;" d="M624 480 552.1 333.2 536 480 488 480 416 328 400 480 344 480 375.6 256 432 256 504 400 512 256 567.9 256 680 480ZM502.3 699.7c-1.5-6.8-4-11.8-7.5-14.9-3.5-3.2-7.7-4.7-12.5-4.7-6.6 0-11.9 2.5-16 7.5-4.1 5-6.1 13.3-6.1 25.1 0 11.1 2.1 19.1 6.2 24 4.2 4.9 9.6 7.4 16.3 7.4 4.8 0 9-1.4 12.3-4.2 3.4-2.8 5.6-6.6 6.7-11.4l18 4.4c-2 7.4-5.1 13.1-9.2 17.1-6.9 6.7-15.9 10.1-26.9 10.1-12.7 0-22.8-4.3-30.6-12.8-7.8-8.5-11.6-20.5-11.6-36 0-14.6 3.9-26.1 11.6-34.5 7.7-8.4 17.6-12.6 29.6-12.6 9.7 0 17.7 2.5 24 7.4 6.3 4.9 10.8 12.4 13.5 22.6L502.3 699.7zM382.8 760c-7.3 0-13.8-1.2-19.5-3.7-4.2-1.8-8.1-4.6-11.7-8.4-3.5-3.7-6.3-8-8.4-12.7-2.7-6.4-4.1-14.3-4.1-23.8 0-14.8 4-26.4 11.9-34.8 7.9-8.4 18.6-12.6 32-12.6 13.3 0 23.9 4.2 31.8 12.7 7.9 8.5 11.9 20.2 11.9 35.2 0 15.1-4 26.9-12 35.4C406.7 755.8 396.1 760 382.8 760zM400.8 688.1c-4.7-5.4-10.6-8.1-17.9-8.1s-13.3 2.7-18 8.1c-4.7 5.4-7.1 13.4-7.1 23.9 0 10.7 2.3 18.7 6.9 24 4.6 5.3 10.7 7.9 18.2 7.9 7.5 0 13.5-2.6 18.1-7.9 4.5-5.2 6.8-13.2 6.8-23.8C407.8 701.5 405.5 693.5 400.8 688.1zM312.1 748.1C305.7 755 292.9 760 280 760l-32 0 0-96 32 0c12.6 0 26.1 5.8 31.2 11 4.2 4.2 7.4 9.6 9.7 16.4 1.9 5.5 2.8 12.1 2.8 19.7 0 8.7-1 16-3 21.9C318.7 739 315.9 744 312.1 748.1zM303 694.9c-1.2-4.1-2.8-7.1-4.8-8.9-2.5-2.3-11-6-18.2-6l-16 0 0 64 8 0c6.6 0 16.8 2.2 25.8-6.5 2.2-2.1 3.9-5.1 5.2-9 1.2-3.9 1.8-9.4 1.8-16.5C304.8 704.8 304.2 699.1 303 694.9zM304 168l416 0 0-16-416 0 0 16ZM304 96l416 0 0-16-416 0 0 16ZM632 789.5 803.7 656 632 656 632 789.5M624 816l-8 0 0-176 224 0 0 8L624 816 624 816zM576 800l0-184 0-16 16 0 232 0 0-632L200-32 200 800 576 800M592 816 184 816l0-864 656 0L840 616 592 616 592 816 592 816z"  horiz-adv-x="1024" />

    
    <glyph glyph-name="jishibentxt" unicode="&#58938;" d="M304 96l416 0 0-16-416 0 0 16ZM304 168l416 0 0-16-416 0 0 16ZM400.7 488 392 448 488 448 440 248 496 248 544 448 640 448 648 488ZM443.1 760 443.1 743.8 470.1 743.8 470.1 664 488.5 664 488.5 743.8 515.5 743.8 515.5 760ZM426.8 760 405.4 760 387.5 729.2 369.3 760 347.8 760 376 714.1 344.8 664 366.9 664 387.2 697.2 407.4 664 429.6 664 398.4 713.4ZM259.5 743.8 286.6 743.8 286.6 664 305 664 305 743.8 331.9 743.8 331.9 760 259.5 760ZM632 789.5 803.7 656 632 656 632 789.5M624 816l-8 0 0-176 224 0 0 8L624 816 624 816zM576 800l0-184 0-16 16 0 232 0 0-632L200-32 200 800 576 800M592 816 184 816l0-864 656 0L840 616 592 616 592 816 592 816z"  horiz-adv-x="1024" />

    
    <glyph glyph-name="shipinmov" unicode="&#58939;" d="M632 789.5 803.7 656 632 656 632 789.5M624 816l-8 0 0-176 224 0 0 8L624 816 624 816zM512 464c-92.8 0-168-75.2-168-168 0-92.8 75.2-168 168-168 92.8 0 168 75.2 168 168C680 388.8 604.8 464 512 464zM456 216 456 376l144-80L456 216zM512.2 758.4 490 689.7 467 758.4 447.1 758.4 479.6 665.6 499.1 665.6 531.7 758.4ZM394.2 760c-7.4 0-13.9-1.2-19.6-3.7-4.3-1.8-8.2-4.6-11.7-8.4-3.6-3.7-6.4-8-8.5-12.7-2.8-6.4-4.1-14.3-4.1-23.8 0-14.8 4-26.4 11.9-34.8 8-8.4 18.7-12.6 32.2-12.6 13.3 0 24 4.2 32 12.7 8 8.5 12 20.2 12 35.2 0 15.1-4 26.9-12.1 35.4C418.2 755.8 407.5 760 394.2 760zM412.3 688.1c-4.7-5.4-10.7-8.1-18-8.1-7.3 0-13.3 2.7-18.1 8.1-4.7 5.4-7.1 13.4-7.1 23.9 0 10.7 2.3 18.7 6.9 24 4.6 5.3 10.7 7.9 18.3 7.9 7.6 0 13.6-2.6 18.2-7.9s6.9-13.2 6.9-23.8C419.4 701.5 417 693.5 412.3 688.1zM287.7 694.5 271.2 760 243.7 760 243.7 664 260.8 664 260.8 739.6 278.8 664 296.5 664 314.6 739.6 314.6 664 331.7 664 331.7 760 304.1 760ZM576 800l0-184 0-16 16 0 232 0 0-632L200-32 200 800 576 800M592 816 184 816l0-864 656 0L840 616 592 616 592 816 592 816z"  horiz-adv-x="1024" />

    
    <glyph glyph-name="tupian" unicode="&#58940;" d="M522.7 415.5l46.3-93.2 12.3-24.9 15.3 23.1 34.9 52.8 95-197.3L299 176l107.7 196.5 28-50.8 13-23.6 14.5 22.7L522.7 415.5M524.4 448l-75.7-118.6-42.1 76.2L272 160l480 0L633.8 405.7l-50.5-76.2L524.4 448 524.4 448zM312 408m-40 0a40 40 0 1 1 80 0 40 40 0 1 1-80 0ZM632 789.5L803.7 656 632 656 632 789.5M624 816l-8 0 0-176 224 0 0 8L624 816 624 816zM576 800l0-184 0-16 16 0 232 0 0-632L200-32 200 800 576 800M592 816L184 816l0-864 656 0L840 616 592 616 592 816 592 816z"  horiz-adv-x="1024" />

    
    <glyph glyph-name="yasuowenjianrar" unicode="&#58941;" d="M304 216l0-32c0-26.5 21.5-48 48-48l368 0c0 0 0 9.7 0 24L352 160c-10.4 0-19.2 6.7-22.5 16l382.8 0c-3.5 4.7-6.1 10.1-7.3 16L328 192l0 16 377 0c1.2 5.9 3.7 11.3 7.3 16L329.5 224c3.3 9.3 12.1 16 22.5 16l368 0c0 14.3 0 24 0 24L352 264C325.5 264 304 242.5 304 216zM352 408l368 0c0 14.3 0 24 0 24L352 432c-26.5 0-48-21.5-48-48l0-32c0-26.5 21.5-48 48-48l368 0c0 0 0 9.7 0 24L352 328c-10.4 0-19.2 6.7-22.5 16l382.8 0c-3.5 4.7-6.1 10.1-7.3 16L328 360l0 16 377 0c1.2 5.9 3.7 11.3 7.3 16L329.5 392C332.8 401.3 341.6 408 352 408zM502.2 698.3c-2.6 2.9-5.9 5.6-9.9 8.1 8 1.2 14.1 4.2 18.1 8.9 4 4.7 6.1 10.7 6.1 17.9 0 5.7-1.3 10.7-4 15.1-2.7 4.4-6.2 7.5-10.6 9.2-4.4 1.7-11.5 2.6-21.3 2.6l-36.7 0 0-96 16.3 0 0 40.1 3.7 0c4.3 0 7.3-0.4 9.3-1.1 2-0.7 3.8-2.1 5.6-4s5-6.6 9.7-14.1l13.3-20.9 22.1 0C523.8 664 503.1 697.3 502.2 698.3zM475.8 720l-16 0 0.3 23.8 14.4 0c7.5 0 12-0.1 13.5-0.3 3-0.5 5.3-1.8 7-3.8 1.6-2 2.5-4.6 2.5-7.8 0-2.9-0.6-5.3-1.9-7.2-1.2-1.9-3-3.3-5.2-4.1C488.2 719.8 484.7 720 475.8 720zM374 760l-35.6-96L358 664l7.5 21.8 36.5 0 8-21.8 20.1 0-36.6 96L374 760zM371.2 702l12.3 35.6 12.6-35.6L371.2 702zM312.3 698.3c-2.6 2.9-5.9 5.6-9.9 8.1 8 1.2 14.1 4.2 18.1 8.9 4 4.7 6 10.7 6 17.9 0 5.7-1.3 10.7-4 15.1-2.7 4.4-6.2 7.5-10.6 9.2-4.4 1.7-11.5 2.6-21.3 2.6l-38.8 0 0-96 18.5 0 0 40.1 3.7 0c4.2 0 7.3-0.4 9.3-1.1 1.9-0.7 3.8-2.1 5.5-4 1.7-1.9 5-6.6 9.7-14.1l13.3-20.9L334 664.1l-11.2 18.7C318.4 690.2 314.9 695.4 312.3 698.3zM283.9 719.4l-13.7 0 0 24.4 14.4 0c7.5 0 12-0.1 13.5-0.3 3-0.5 5.3-1.8 6.9-3.8 1.6-2 2.5-4.6 2.5-7.8 0-2.9-0.6-5.3-1.9-7.2-1.2-1.9-3-3.3-5.2-4.1C298.3 719.8 292.8 719.4 283.9 719.4zM632 789.5 803.7 656 632 656 632 789.5M624 816l-8 0 0-176 224 0 0 8L624 816 624 816zM576 800l0-184 0-16 16 0 232 0 0-632L200-32 200 800 576 800M592 816 184 816l0-864 656 0L840 616 592 616 592 816 592 816z"  horiz-adv-x="1024" />

    
    <glyph glyph-name="bianji" unicode="&#58985;" d="M249.6 76.8c19.2 0 38.4 6.4 57.6 19.2h6.4l-179.2 179.2v-6.4c-12.8-19.2-19.2-38.4-19.2-57.6l-64-198.4 198.4 64zM889.6 793.6l-57.6 57.6c-32 32-83.2 32-115.2 0l-57.6-57.6 172.8-172.8 57.6 57.6c32 32 32 83.2 0 115.2v0 0 0zM774.4 563.2l-172.8 172.8-403.2-403.2 172.8-172.8 403.2 403.2zM0-44.8h1024v-64h-1024v64z"  horiz-adv-x="1024" />

    
    <glyph glyph-name="dianhua" unicode="&#58924;" d="M933.203 181.937c-1.1 1.11-2.28 2.152-3.502 3.123l-131.842 104.496c-29.839 27.758-76.729 27.118-105.806-1.931-1.921-1.922-3.643-4.035-5.164-6.297l-35.001-52.625c-18.993 4.865-72.445 33.324-168.205 129.123-95.019 95.057-123.858 149.081-129.001 168.351l52.512 34.946c2.262 1.502 4.364 3.234 6.285 5.155 14.387 14.415 22.332 33.574 22.332 53.945 0 19.441-7.222 37.769-20.392 51.934l-104.423 131.887c-1.001 1.252-2.041 2.432-3.182 3.554-30.68 30.661-80.65 32.614-110.049 4.644l-106.346-92.603c-0.719-0.631-1.42-1.272-2.081-1.943-16.83-16.837-25.355-42.644-25.355-76.698 0-0.010 0-0.010 0-0.010 0-108.55 83.192-301.649 242.191-460.711 91.056-91.083 201.245-164.88 310.293-207.793 50.932-20.040 175.009-61.062 226.922-9.14 0.679 0.67 1.32 1.362 1.941 2.073l92.597 106.389c12.608 13.293 19.552 31.252 19.552 50.771 0.001 22.321-8.844 43.964-24.275 59.36zM786.052 22.193c-35.742-16.046-240.711 34.805-421.924 216.060-150.473 150.555-218.174 326.136-218.174 402.732 0 11.561 1.56 17.328 2.341 19.459l101.702 88.561 100.603-127.060-50.951-33.902c-1.060-0.701-2.081-1.462-3.082-2.263-15.949-12.913-24.755-32.143-24.755-54.146v-0.009c0-51.633 51.792-129.623 153.915-231.778 104.745-104.797 184.154-156.549 236.007-153.838 20.093 1.060 37.784 9.811 49.79 24.645 0.801 0.992 1.562 2.023 2.262 3.083l33.901 50.963 127-100.653-88.636-101.855z"  horiz-adv-x="1024" />

    
    <glyph glyph-name="tianchongxuanxiangkuangqueding" unicode="&#58928;" d="M899.725 831.979h-776.037c-32.975 0-59.706-26.732-59.706-59.706v-776.037c0-32.975 26.732-59.706 59.706-59.706h776.037c32.975 0 59.706 26.732 59.706 59.706v776.037c0 32.975-26.732 59.706-59.706 59.706zM825.693 573.791l-375.602-375.602c-3.625-3.625-8.397-5.506-13.461-5.762-6.612-1.218-13.090 0.283-17.552 4.745l-224.406 224.407c-8.121 8.121-6.493 22.915 3.637 33.045l8.84 8.84c10.129 10.129 24.924 11.758 33.045 3.637l193.883-193.883 346.095 346.094c8.682 8.682 23.932 7.509 34.061-2.62l8.84-8.84c10.129-10.129 11.301-25.378 2.62-34.061z"  horiz-adv-x="1024" />

    
    <glyph glyph-name="yunguanjia" unicode="&#58921;" d="M958.750927 245.142465c0 89.296769-53.838186 166.243255-130.753973 200.12083 0.258896 1.381463 0.400113 2.804882 0.400113 4.261047 0 78.151941-30.43415 151.625326-85.695754 206.886931s-128.736013 85.695754-206.887954 85.695754c-71.304999 0-139.999544-25.944905-193.428408-73.055876-51.131541-45.083801-84.85869-106.375749-95.503121-173.2396-42.290175-10.077519-81.09804-31.643698-112.613824-63.159482-44.927235-44.927235-69.669756-104.660688-69.669756-168.196747 0-63.537082 24.742521-123.270535 69.669756-168.196747 44.927235-44.927235 104.660688-69.669756 168.196747-69.669756 1.028423 0 2.039449 0.074701 3.032056 0.204661 0.992607-0.130983 2.003634-0.204661 3.032056-0.204661l435.108772 0c0.551562 0 1.096984 0.026606 1.639337 0.064468C863.450421 29.361981 958.750927 126.329453 958.750927 245.142465zM740.196259 72.635553 308.528865 72.635553c-1.028423 0-2.039449-0.074701-3.032056-0.204661-0.992607 0.130983-2.003634 0.204661-3.032056 0.204661-105.768929 0-191.817724 86.048795-191.817724 191.817724 0 105.767905 86.048795 191.817724 191.817724 191.817724s191.817724-86.048795 191.817724-191.817724c0-12.716626 10.307763-23.024389 23.024389-23.024389s23.024389 10.307763 23.024389 23.024389c0 63.536059-24.742521 123.269511-69.669756 168.196747-44.927235 44.927235-104.660688 69.669756-168.196747 69.669756-2.518357 0-5.027503-0.053212-7.532557-0.12996 24.351618 111.814622 124.580367 193.868429 240.882186 193.868429 132.547829 0 240.981447-105.149828 246.310825-236.412384-13.57518 2.648316-27.589358 4.052293-41.927925 4.052293-12.716626 0-23.024389-10.308787-23.024389-23.024389s10.307763-23.024389 23.024389-23.024389c95.120404 0 172.505889-77.385485 172.505889-172.505889S835.316663 72.635553 740.196259 72.635553zM302.464753 406.505573c-78.32795 0-142.052297-63.723324-142.052297-142.051273 0-4.239558 3.436262-7.674796 7.674796-7.674796s7.674796 3.435239 7.674796 7.674796c0 69.863161 56.838519 126.70168 126.702704 126.70168 4.238534 0 7.674796 3.436262 7.674796 7.674796S306.703287 406.505573 302.464753 406.505573zM179.561585 233.53101c-1.031493 4.112668-5.200442 6.612605-9.311063 5.577019-4.111644-1.030469-6.608511-5.199419-5.578042-9.311063 1.966795-7.845689 4.632507-15.576767 7.92039-22.976294 1.27197-2.860141 4.076852-4.559852 7.017834-4.559852 1.040702 0 2.098801 0.212848 3.111874 0.663102 3.874237 1.721201 5.617951 6.256494 3.897773 10.129708C183.688579 219.648838 181.314509 226.538759 179.561585 233.53101z"  horiz-adv-x="1024" />

    
    <glyph glyph-name="jingshigantanhao2" unicode="&#59380;" d="M512 832C264.32 832 64 631.68 64 384s200.32-448 448-448 448 200.32 448 448S759.68 832 512 832zM512 128c-35.2 0-64 28.8-64 64 0 35.2 28.8 64 64 64 35.2 0 64-28.8 64-64C576 156.8 547.2 128 512 128zM576 384c0-35.2-28.8-64-64-64C476.8 320 448 348.8 448 384L448 576c0 35.2 28.8 64 64 64 35.2 0 64-28.8 64-64L576 384z"  horiz-adv-x="1024" />

    
    <glyph glyph-name="shanchuguanbicha2" unicode="&#59403;" d="M544 832C279.04 832 64 616.96 64 352S279.04-128 544-128c264.96 0 480 215.04 480 480S808.96 832 544 832zM759.04 137.6c-12.8-12.8-33.28-12.8-45.44 0L542.08 310.4l-174.08-172.16c-12.8-12.8-33.28-12.8-46.08 0-12.8 12.8-12.8 33.28 0 45.44l174.72 172.8L331.52 521.6c-12.8 12.8-12.8 33.28 0 45.44 12.8 12.8 33.28 12.8 45.44 0l165.12-165.76 167.68 165.76c12.8 12.8 33.28 12.8 46.08 0 12.8-12.8 12.8-33.28 0-45.44l-168.32-166.4 170.88-172.16C771.2 170.88 771.2 150.4 759.04 137.6z"  horiz-adv-x="1024" />

    
    <glyph glyph-name="shuji2" unicode="&#59414;" d="M288 832l-128 0C106.88 832 64 789.12 64 736l0-512C64 170.88 106.88 128 160 128l128 0C341.12 128 384 85.12 384 32 384 14.08 398.08 0 416 0S448 14.08 448 32l0 640C448 760.32 376.32 832 288 832zM800 832l-128 0C583.68 832 512 760.32 512 672l0-640C512 14.08 526.08 0 544 0 561.92 0 576 14.08 576 32c0 53.12 42.88 96 96 96l128 0c53.12 0 96 42.88 96 96l0 512C896 789.12 853.12 832 800 832z"  horiz-adv-x="1024" />

    
    <glyph glyph-name="nan" unicode="&#58954;" d="M665.2 799.2c-25.6 0-46.4-20.8-46.4-46.4s20.8-46.4 46.4-46.4l117.2 0L566.2 486.8c-50.3 35.9-112 57.3-179.1 57.3-168.2 0-304.5-133.4-304.5-298s136.3-298 304.5-298c168.2 0 304.5 133.4 304.5 298 0 65.8-22.1 126.5-59.1 175.8l215.9 219.3 0-119c0-25.6 20.8-46.4 46.4-46.4s46.4 20.8 46.4 46.4L941.2 799.2 665.2 799.2zM387.2 41c-116.7 0-211.7 92-211.7 205.2 0 113.1 95 205.2 211.7 205.2s211.7-92 211.7-205.2C598.9 133.1 503.9 41 387.2 41z"  horiz-adv-x="1024" />

    
    <glyph glyph-name="gengduoda" unicode="&#58933;" d="M384 0C384 70.692448 440.814697 128 512 128 582.692448 128 640 71.185306 640 0 640-70.692448 583.185303-128 512-128 441.307552-128 384-71.185306 384 0ZM384 384C384 454.692448 440.814697 512 512 512 582.692448 512 640 455.185303 640 384 640 313.307552 583.185303 256 512 256 441.307552 256 384 312.814697 384 384ZM384 768C384 838.692448 440.814697 896 512 896 582.692448 896 640 839.185303 640 768 640 697.307552 583.185303 640 512 640 441.307552 640 384 696.814697 384 768Z"  horiz-adv-x="1024" />

    
    <glyph glyph-name="qqkongjian" unicode="&#58923;" d="M656.548652 428.62536c-151.977343 33.011858-304.985156 12.455683-304.985156 12.455683 128.45665-11.553127 193.024202-36.154431 193.024202-36.154431L360.872512 264.478859c169.413458-35.894512 308.913629 6.703679 308.913629 6.703679C487.283574 287.119509 464.465892 301.077406 464.465892 301.077406L656.548652 428.62536 656.548652 428.62536zM947.061189 482.963942c-1.690502 5.179976-6.310729 8.859785-11.736299 9.315156l-295.426453 25.365714L524.475638 790.780587c-2.112104 5.0142-7.037277 8.283664-12.478196 8.283664-5.440919 0-10.361999-3.269463-12.473079-8.283664L384.10054 517.644813 88.673064 492.279099c-5.429663-0.455371-10.045797-4.13518-11.735275-9.315156-1.685385-5.179976-0.105401-10.865465 4.01136-14.439874L305.047066 274.369114 237.875201-14.469294c-1.235131-5.285377 0.819668-10.816347 5.223978-14.039761 4.422729-3.158946 10.30674-3.40761 14.983249-0.60989l253.91399 153.125493 253.908874-153.125493c2.177596-1.340531 4.592598-1.944282 7.008624-1.944282 2.809999 0 5.607718 0.848321 7.978718 2.549056 4.411473 3.225461 6.461155 8.754385 5.231141 14.041808L718.950887 274.369114l224.093824 194.154955C947.166589 472.098477 948.745551 477.777827 947.061189 482.963942L947.061189 482.963942zM865.615225 447.330374 681.932786 288.183747l55.053873-236.749052c1.014096-4.337795-0.671289-8.871041-4.282536-11.508102-1.940189-1.39579-4.234441-2.093684-6.538927-2.093684-1.983167 0-3.962242 0.49835-5.745864 1.595334L512.301364 164.941865 304.177256 39.428244c-3.834328-2.295276-8.661264-2.089591-12.283768 0.49835-3.613294 2.642177-5.29254 7.176446-4.28356 11.508102l55.061037 236.749052-183.683463 159.146627c-3.372817 2.926656-4.669346 7.585769-3.290953 11.830443 1.385557 4.249791 5.170766 7.264451 9.619078 7.635911l242.151086 20.794605 94.606705 223.876883c1.733481 4.110621 5.767354 6.792707 10.228969 6.792707 4.459568 0 8.493441-2.682086 10.228969-6.792707l94.605681-223.876883 242.151086-20.794605c4.450359-0.37146 8.232498-3.38612 9.619078-7.635911C870.286618 454.911026 868.989065 450.25703 865.615225 447.330374L865.615225 447.330374zM865.615225 447.330374"  horiz-adv-x="1024" />

    
    <glyph glyph-name="xiala" unicode="&#59023;" d="M579.043 103.592l418.544 418.641c25.83 25.827 33.48 64.34 19.53 98.087-13.95 33.655-46.79 55.52-83.14 55.52L96.8 675.84c-36.352 0-69.205-21.955-83.147-55.52-4.59-11.157-6.842-22.86-6.842-34.47 0-23.395 9.177-46.43 26.365-63.62l418.641-418.639c16.912-16.91 39.772-26.365 63.622-26.365 23.84 0 46.795 9.535 63.62 26.365L579.043 103.591 579.043 103.592z"  horiz-adv-x="1024" />

    
    <glyph glyph-name="ai-book" unicode="&#58925;" d="M893.615 775.155c-19.081 0-31.801-12.72-31.801-31.801v-737.789c0-31.801-31.801-63.602-63.602-63.602l-559.702-0c-38.161 0-82.683 31.801-82.683 63.602v69.963c0 31.801 38.161 50.882 76.323 50.882h534.261c19.081 0 31.801 12.72 31.801 31.801v623.304c0 69.963-50.882 114.484-127.205 114.484h-432.497c-69.963 0-139.925-38.161-139.925-114.484v-782.311c0 0 0 0 0-6.36s0-6.36 0-12.72c6.36-57.242 63.602-101.764 120.845-108.124 0 0 6.36 0 6.36 0 0 0 0 0 6.36 0h566.062c69.963 0 127.205 57.242 127.205 120.845l0 750.509c0 12.72-12.72 31.801-31.801 31.801zM772.77 62.807h-521.54c-19.081 0-31.801-12.72-31.801-31.801s12.72-31.801 31.801-31.801h521.54c19.081 0 31.801 12.72 31.801 31.801s-12.72 31.801-31.801 31.801z"  horiz-adv-x="1024" />

    
    <glyph glyph-name="ai-delete" unicode="&#58926;" d="M873.525 748.997c23.474 0 42.84-3.889 58.103-11.667 15.257-7.778 27.386-17.502 36.385-29.168 9.001-11.667 15.258-24.307 18.779-37.919 3.52-13.614 5.283-26.248 5.283-37.919 0-5.442-0.195-9.719-0.587-12.835-0.391-3.11-0.587-5.831-0.587-8.166v-6.999h-77.468v-612.517c0-15.555-3.129-30.532-9.392-44.919-6.257-14.392-15.257-27.031-26.995-37.919-11.736-10.887-26.020-19.638-42.845-26.252-16.824-6.61-36.191-9.914-58.103-9.914h-523.505c-20.345 0-39.515 3.11-57.515 9.33-17.994 6.225-33.448 14.975-46.359 26.252-12.913 11.277-23.089 24.891-30.521 40.835-7.434 15.944-11.149 34.031-11.149 54.253v600.852h-72.778c-0.778 0.779-1.171 2.726-1.171 5.835-0.784 3.889-1.175 15.945-1.175 36.168 0 10.108 2.346 21.39 7.041 33.836 4.695 12.445 11.736 23.917 21.129 34.414 9.392 10.503 21.521 19.254 36.387 26.252 14.871 6.999 32.474 10.498 52.824 10.498h104.462v71.172c0 20.222 7.041 37.531 21.129 51.916 14.088 14.393 31.299 21.585 51.649 21.585h367.388c27.393 0 46.367-7.192 56.934-21.585 10.561-14.386 15.844-31.694 15.844-51.916v-72.334c16.433-0.779 34.036-1.168 52.82-1.168h53.994zM326.546 748.997h367.388v73.502h-367.388v-73.502zM290.155 10.471c25.040 0 37.562 15.944 37.562 47.833v541.351h-72.774v-541.351c0-16.334 2.542-28.39 7.63-36.168 5.087-7.778 14.283-11.666 27.582-11.666v0zM512.004 11.639c13.298 0 22.298 3.694 26.995 11.083 4.695 7.387 7.041 19.248 7.041 35.582v541.351h-72.772v-541.351c0-31.11 12.911-46.665 38.737-46.665v0zM732.67 13.97c14.089 0 23.474 3.694 28.171 11.087 4.695 7.389 7.041 19.249 7.041 35.584v539.014h-73.949v-539.014c0-31.11 12.913-46.671 38.737-46.671v0z"  horiz-adv-x="1024" />

    
    <glyph glyph-name="ai-up-img" unicode="&#58994;" d="M973.61 145.763h-120.177v120.197c0 26.71-20.033 46.744-46.744 46.744s-46.744-20.034-46.744-46.744v-126.875h-133.554c-26.71 0-46.744-20.033-46.744-46.744s20.033-46.744 46.744-46.744h126.875v-126.855c0-26.71 20.033-46.744 46.744-46.744 26.71 0 46.744 20.034 46.744 46.744l0 126.855h126.855c26.712 0 46.744 20.032 46.744 46.744 6.678 26.71-20.031 53.422-46.744 53.422v0 0zM505.222 24.39v0h-418.084c-15.501 0-27.136 11.634-27.136 27.176v759.112c0 15.512 11.635 27.146 27.136 27.146h740.858c15.48 0 27.116-11.635 27.116-27.146v-410.313c0-15.501 11.656-27.137 27.177-27.137 15.5 0 27.136 11.636 27.136 27.137v0 0l0 437.458c0 31.031-27.136 58.178-58.177 58.178l-791.247-0c-31.021 0-58.177-27.147-58.177-58.178v-813.433c0-31.001 27.156-58.157 58.177-58.157h445.221c15.5 0 27.136 11.656 27.136 27.156-0.002 19.387-11.637 31.001-27.136 31.001v0 0zM499.514 159.118c20.033 40.066 66.777 66.777 113.521 66.777h53.421v60.098c0 53.422 33.39 100.166 80.133 120.198v0 0l-66.776 200.32-233.718-300.486-66.777 106.843-247.055-253.751h367.252zM379.316 586.49c0 40.055-33.389 73.444-73.453 73.444s-73.454-33.39-73.454-73.444c0-40.067 33.389-73.454 73.454-73.454s73.453 33.388 73.453 73.454v0 0z"  horiz-adv-x="1024" />

    
    <glyph glyph-name="ditu" unicode="&#58952;" d="M801.999 548.87c0 152.773-138.191 276.63-291.783 276.63-153.593 0-287.992-123.856-287.992-276.63 0-141.658 284.775-480.848 284.775-480.848S801.999 402.478 801.999 548.87L801.999 548.87 801.999 548.87zM418.426 539.087c0 52.268 43.308 94.689 96.65 94.689 53.407 0 96.649-42.355 96.649-94.689 0-52.333-43.305-94.694-96.649-94.694C461.734 444.456 418.426 486.815 418.426 539.087L418.426 539.087 418.426 539.087zM607.621 59.751c0.825-2.466 1.267-5.05 1.267-7.575 0-26.137-43.308-47.35-96.653-47.35-53.341 0-96.649 21.213-96.649 47.35 0 2.586 0.443 5.109 1.262 7.575-58.519-10.859-97.911-31.377-97.911-54.925 0-34.909 86.55-63.127 193.299-63.127 106.755 0 193.303 28.218 193.303 63.127C705.475 28.374 666.082 48.892 607.621 59.751L607.621 59.751 607.621 59.751zM607.621 59.751"  horiz-adv-x="1024" />

    
    <glyph glyph-name="xiangxia-copy" unicode="&#58942;" d="M506.537 157.469l-436.907 436.907c-14.563 14.563-36.409 14.563-50.973 0s-14.564-36.409 0-50.973l458.752-458.753c7.281-7.28 21.844-14.562 29.127-14.562 7.281 0 21.844 0 29.126 7.282l466.036 466.033c14.563 14.563 14.563 36.409 0 50.973s-36.409 14.563-50.973 0l-444.19-436.906z"  horiz-adv-x="1024" />

    
    <glyph glyph-name="lvyou" unicode="&#58967;" d="M215.434096-123.510756l133.947711 0c-21.285792 32.864502-30.623461 60.500932-43.259246 105.936751L215.434096-123.510756zM767.287779 163.618731 539.848767-90.707652 563.002093-123.510756 728.883097-123.510756 1023.979022-123.510756ZM553.293987 258.852722 446.356442 130.317277c14.130835-76.121701 15.065114-113.842815 53.779857-176.209234l0.37453 0.433882 156.355047 183.931103L553.293987 258.852722zM474.618113-98.862379c-4.107551 7.344269-8.090259 14.813381-12.013615 22.344914-0.188288 0.496304-0.436952 0.871857-0.684592 1.369184-12.574387 24.6494-23.775496 50.417273-33.986045 76.746942-0.62217 1.680269-1.242294 3.362584-1.867534 5.039783-2.614547 6.971785-5.16565 13.882172-7.594979 20.853957-0.86981 2.550079-1.738597 5.040806-2.613524 7.529487-2.114151 6.163373-4.169973 12.325723-6.161327 18.488073-0.931209 2.988054-1.926886 6.036483-2.800789 9.024537-1.804089 5.727445-3.609201 11.326976-5.228071 17.056468-46.434565 156.601664-56.267515 244.493433-50.41932 269.761933 0.436952 1.619894 0.49835 3.735068 0.436952 5.976108 23.219841 2.551102 57.823963 2.489704 98.40931-3.735068 58.632375-8.900717 130.463354-49.9179 137.932466-35.354206 3.919263 7.469112-54.649668 72.015174-102.20373 92.308359 60.999282 9.461489 114.400516 4.232394 147.143245 3.485381 18.798135-0.436952 37.532825-2.428306 40.332591 0.310062 5.854335 5.665023-29.999245 27.13808-55.083549 35.231409-17.86488 5.78782-57.827033 21.411659-119.447463 7.217379-57.015551-13.132088-108.802008-43.2572-137.371694-62.179155 0.309038 0.808412 0.561795 1.429559 0.934279 2.240017 34.668591 91.807962 121.747855 122.05894 161.334455 142.352125 14.56574 7.404644 30.436196 13.193487 30.312376 17.053398-0.373507 8.090259-45.686529 14.192234-71.514777 11.641131-18.36323-1.805112-61.746296-3.176342-96.356558-42.887786-14.686491-16.866133-25.51921-36.72339-33.486672-56.329936-2.737344 37.407981-10.333346 82.038458-30.250978 116.955712-32.9259 57.638745-95.480608 57.141418-105.190761 56.5786-9.710153-0.559748-7.592932-23.464411 2.676969-53.340859 10.269901-29.937846 29.690206-55.521524 53.341882-97.724719 7.717775-13.629415 18.298761-31.68156 29.006637-49.9179-18.178011 21.036106-42.264593 43.321668-71.021543 56.888661-47.865147 22.594601-88.075964 6.599302-105.689111 0.934279-24.647353-7.906064-63.676252-31.494295-60.688197-39.024805 1.37123-3.548826 18.301831-2.615571 34.608216-3.610224 44.566008-2.800789 136.499837 4.109598 205.526957-66.288752 0.995677-0.934279 1.74576-1.682315 2.615571-2.555196-32.991392 12.07706-86.769202 28.011984-141.66651 28.322046-63.240323 0.375553-98.717326-23.587208-114.903983-33.048697-22.653953-13.382798-52.782134-42.202171-45.811372-46.435589 3.362584-2.053776 21.166065 3.984754 39.337937 8.527211 49.173956 12.137435 143.660934 45.623084 252.711606 20.48045-32.741705-6.725168-76.06235-25.022906-101.209076-73.760934-22.779819-44.378743-7.780197-149.134599 1.36816-151.188374 16.060791-3.546779 29.940916 77.368088 60.315714 127.72294 22.097274 36.722366 45.249577 64.110133 62.306045 79.922261-7.717775-152.622026 8.464789-215.238133 31.994692-316.819692l0-0.064468c8.837272-37.718043 18.546402-71.705112 28.568662-101.954043 0.185218-0.435928 0.312108-0.934279 0.434905-1.370207 1.86958-5.478781 3.672646-10.829649 5.477758-16.119119 0.248663-0.49835 0.37453-1.059122 0.621147-1.619894 1.868557-5.228071 12.824073-31.68156 12.824073-31.68156l91.000574 0c0 0-9.958816 13.754259-13.444197 19.857257C476.48667-102.037698 475.552391-100.48125 474.618113-98.862379zM375.649054 384.336668c2.615571 0.995677 66.724681 23.028483 111.914906-4.170996 2.428306-1.494027 3.236718-4.669346 1.74269-7.036253-0.995677-1.616824-2.675946-2.489704-4.481058-2.489704-0.86981 0-1.804089 0.25071-2.614547 0.74906-41.078581 24.709775-102.514815 3.485381-103.075587 3.299139-2.736321-0.935302-5.723352 0.432859-6.65763 3.109828C371.542526 380.475733 372.91171 383.401366 375.649054 384.336668zM275.996426 329.685977c-0.559748-0.312108-50.354851-36.600593-60.063981-85.273129-0.49835-2.366907-2.615571-4.109598-5.105275-4.109598-0.245593 0-0.621147 0-0.995677 0.124843-2.799766 0.49835-4.604878 3.234671-4.106528 5.975085 10.579963 52.720735 61.994959 90.065272 64.236 91.622744 2.240017 1.617847 5.476735 1.119497 7.219425-1.121544C278.800285 334.540542 278.301935 331.366246 275.996426 329.685977zM326.415746 423.237653l-0.249687 0c-2.803859 0-5.04183 2.176572-5.167696 4.91801-4.605901 94.982258-71.079872 170.919764-71.704089 171.728176-1.866511 2.117221-1.743714 5.353938 0.435928 7.220449 2.179642 1.868557 5.41329 1.681292 7.281847-0.497327 2.864234-3.173273 69.464071-79.423911 74.317613-177.952948C331.456552 425.788755 329.277934 423.422871 326.415746 423.237653z"  horiz-adv-x="1024" />

    
    <glyph glyph-name="shuju" unicode="&#58903;" d="M382.302164 548.030025C373.395456 548.030025 366.205703 540.818798 366.205703 531.93355L366.205703-57.561673C366.205703-66.446921 373.395456-73.658075 382.302164-73.658075 391.165945-73.658075 398.398625-66.446921 398.398625-57.561673L398.398625 531.93355C398.398625 540.818798 391.165945 548.030025 382.302164 548.030025L382.302164 548.030025ZM89.239318 303.793079C80.35407 303.793079 73.142857 296.581925 73.142857 287.696677L73.142857-57.561673C73.142857-66.446921 80.35407-73.658075 89.239318-73.658075 98.124559-73.658075 105.335771-66.446921 105.335771-57.561673L105.335771 287.696677C105.335771 296.581925 98.124559 303.793079 89.239318 303.793079L89.239318 303.793079ZM968.384936 503.73259C959.499696 503.73259 952.309943 496.521362 952.309943 487.636114L952.309943-57.561673C952.309943-66.446921 959.499696-73.658075 968.384936-73.658075 977.270184-73.658075 984.502857-66.446921 984.502857-57.561673L984.502857 487.636114C984.502857 496.521362 977.270184 503.73259 968.384936 503.73259L968.384936 503.73259ZM963.448693 686.181157C972.333941 686.288457 979.480766 693.56405 979.394918 702.449298L978.19305 806.947474C978.150122 811.411602 976.218551 815.661056 972.913408 818.687195 969.608272 821.691831 965.251496 823.15125 960.723024 822.807845L856.58967 813.987035C847.72589 813.235858 841.158532 805.466624 841.888241 796.602807 842.639411 787.739063 850.558866 781.364882 859.293879 781.901385L922.585154 787.266853 675.536713 515.301157 392.81852 792.267483C386.6804 798.276827 376.958142 798.448567 370.669787 792.653824L78.894658 525.795986C72.327303 519.786642 71.876602 509.613714 77.885945 503.046363 83.895289 496.479013 94.068253 496.049737 100.614144 502.03765L381.164683 758.615186 664.95597 480.618642C667.960642 477.656869 672.016955 476.025783 676.223495 476.025783L676.695654 476.025783C681.052431 476.154514 685.194584 478.06464 688.134868 481.28395L946.472294 765.654674 947.180537 702.084462C947.287852 693.263579 954.456137 686.181157 963.298458 686.181157L963.448693 686.181157 963.448693 686.181157ZM675.34355 304.415525C666.458309 304.415525 659.247097 297.204297 659.247097 288.319049L659.247097-57.561673C659.247097-66.446921 666.458309-73.658075 675.34355-73.658075 684.228798-73.658075 691.440011-66.446921 691.440011-57.561673L691.440011 288.319049C691.440011 297.204297 684.228798 304.415525 675.34355 304.415525L675.34355 304.415525Z"  horiz-adv-x="1024" />

    
    <glyph glyph-name="gantanhao" unicode="&#58894;" d="M512 891.87328c280.49408 0 507.87328-227.3792 507.87328-507.87328 0-280.49408-227.3792-507.87328-507.87328-507.87328C231.50592-123.87328 4.12672 103.50592 4.12672 384 4.12672 664.49408 231.50592 891.87328 512 891.87328zM512 210.03264c-42.47552 0-76.91264-34.42688-76.91264-76.91264 0-42.47552 34.43712-76.91264 76.91264-76.91264 42.47552 0 76.91264 34.43712 76.91264 76.91264C588.91264 175.60576 554.47552 210.03264 512 210.03264zM509.78816 270.16192c36.58752 0 66.24256 29.66528 66.24256 66.24256l0 309.1456c0 36.58752-29.65504 66.24256-66.24256 66.24256-36.58752 0-66.24256-29.66528-66.24256-66.24256l0-309.1456C443.5456 299.81696 473.20064 270.16192 509.78816 270.16192z"  horiz-adv-x="1024" />

    
    <glyph glyph-name="wenjianyinpin" unicode="&#58949;" d="M877.854 626.775l-56.805 56.806-121.726 123.079c-24.345 21.64-41.928 27.050-68.978 27.050h-451.737c-31.108 0-55.453-24.345-55.453-55.453v-789.865c0-29.755 24.345-54.1 55.453-54.1h666.787c31.108 0 55.453 24.345 55.453 54.1v584.284c0 24.345-8.115 35.165-22.993 54.1v0zM830.516 606.487h-156.891v156.891l156.891-156.891zM856.213-11.609c0-5.409-4.057-10.821-10.821-10.821h-666.787c-6.762 0-12.172 5.409-12.172 10.821v789.865c0 6.762 5.409 12.172 12.172 12.172 0 0 451.737 0 451.737 0v-205.582c0-12.173 9.468-21.64 21.64-21.64h204.229v-574.816zM723.668 482.057c-117.668 1.353-246.157-22.993-363.825-59.511-9.468-4.058-10.821-5.409-10.821-14.877v-210.991c-12.172 5.409-27.050 6.762-41.927 5.409-45.985-1.353-82.503-29.755-82.503-60.862 0-31.108 36.517-55.453 82.503-52.748 45.985 2.706 82.503 29.755 82.503 60.863v193.409c109.553 25.698 209.638 43.28 312.429 51.395v-150.128c-12.173 5.409-25.698 6.762-40.576 6.762-45.985-2.706-82.503-29.755-82.503-62.215 0-31.108 36.517-55.453 82.503-52.748 44.632 2.706 82.503 29.755 82.503 60.863v267.797c0 13.525-6.762 16.23-20.287 17.583z"  horiz-adv-x="1024" />

    
    <glyph glyph-name="cha" unicode="&#58932;" d="M920.371828 559.194114c-22.50148 53.201689-54.710043 100.975762-95.731318 141.998061-41.019229 41.022299-88.791256 73.229838-141.998061 95.732341-55.097876 23.302729-113.607454 35.120892-173.865863 35.120892-60.299341 0-118.80892-11.818163-173.909865-35.120892-53.202713-22.502503-100.976786-54.710043-141.999085-95.732341-41.017182-41.022299-73.228815-88.795349-95.733365-141.998061-23.302729-55.097876-35.119869-113.612571-35.119869-173.933401 0-60.299341 11.81714-118.814036 35.119869-173.911912 22.503527-53.201689 54.716182-100.979856 95.733365-141.998061 41.022299-41.022299 88.796372-73.230861 141.999085-95.732341 55.101969-23.307845 113.611547-35.120892 173.909865-35.120892 60.258409 0 118.767987 11.81407 173.869956 35.120892 53.202713 22.502503 100.975762 54.710043 141.993968 95.732341 41.021276 41.018206 73.229838 88.796372 95.731318 141.998061 23.308869 55.097876 35.126009 113.612571 35.126009 173.911912C955.49272 445.582567 943.680696 504.092146 920.371828 559.194114L920.371828 559.194114zM693.264367 196.216149c-0.008186-0.010233-0.013303-0.014326-0.022513-0.022513-12.402471-12.404518-32.516578-12.417821-44.933375-0.019443L504.888022 339.322451 361.739764 195.903018c-0.00921-0.010233-0.01842-0.019443-0.022513-0.022513-12.402471-12.405541-32.512485-12.416797-44.933375-0.022513-12.43931 12.416797-12.45773 32.543184-0.060375 44.970214l143.147234 143.42148L316.452325 527.398968c-12.42703 12.403494-12.444427 32.530904-0.040932 44.952818 0.004093 0.00921 0.01228 0.01842 0.021489 0.022513 12.386098 12.390191 32.496112 12.398378 44.915979 0.004093l143.420457-143.148257 143.152351 143.42148 0.01842 0.022513c12.404518 12.403494 32.516578 12.415774 44.950771 0.00307 12.42703-12.403494 12.444427-32.529881 0.040932-44.955888L549.780465 384.302899l143.425573-143.149281C705.625906 228.750123 705.649442 208.62476 693.264367 196.216149L693.264367 196.216149z"  horiz-adv-x="1024" />

    
    <glyph glyph-name="jianhao" unicode="&#59016;" d="M964.025047-68.025047 59.974953-68.025047 59.974953 836.025047l904.050094 0L964.025047-68.025047zM100.907201-27.092799l822.185598 0L923.092799 795.092799l-822.185598 0L100.907201-27.092799zM568.310493 320.794469 873.26188 320.794469 873.26188 447.206554 873.26188 447.206554 568.310493 447.206554ZM592.056314 447.206554 150.73812 447.206554 150.73812 320.794469 592.056314 320.794469Z"  horiz-adv-x="1024" />

    
    <glyph glyph-name="jiahao1" unicode="&#59017;" d="M964.025047-68.025047 59.974953-68.025047 59.974953 836.025047l904.050094 0L964.025047-68.025047zM100.907201-27.092799l822.185598 0L923.092799 795.092799l-822.185598 0L100.907201-27.092799zM873.26188 447.206554 575.204507 447.206554 575.204507 745.26188 448.793446 745.26188 448.793446 447.206554 150.73812 447.206554 150.73812 320.794469 448.793446 320.794469 448.793446 22.73812 575.204507 22.73812 575.204507 320.794469 873.26188 320.794469 873.26188 447.206554Z"  horiz-adv-x="1024" />

    
    <glyph glyph-name="jiahao" unicode="&#58927;" d="M851.968 392.192 532.48 392.192 532.48 707.584c0 12.288-8.192 20.48-20.48 20.48S491.52 719.872 491.52 707.584l0-319.488L172.032 388.096c-12.288 0-20.48-8.192-20.48-20.48s8.192-20.48 20.48-20.48L491.52 347.136l0-319.488c0-12.288 8.192-20.48 20.48-20.48s20.48 8.192 20.48 20.48l0 319.488 319.488 0c12.288 0 20.48 8.192 20.48 20.48S864.256 392.192 851.968 392.192z"  horiz-adv-x="1024" />

    
    <glyph glyph-name="book1" unicode="&#58929;" d="M0 848.278v-737.654c0-36.024 27.088-74.654 60.366-86.569l430.286-152.055v867.833l-430.286 152.055c-33.278 11.961-60.366-7.586-60.366-43.61zM963.153 892.772l-152.52-66.184v-737.654c0-35.977-23.876-81.356-53.338-101.091l-117.334-79.634 323.192 116.729c33.697 11.496 60.785 49.707 60.785 85.685v737.654c0 36.024-27.088 55.758-60.785 44.495zM767.953 110.624v737.654c0 35.977-23.876 48.823-53.338 29.089l-181.33-137.58v-867.787l181.33 137.533c29.461 19.781 53.338 65.113 53.338 101.091z"  horiz-adv-x="1025" />

    
    <glyph glyph-name="feiji1" unicode="&#58897;" d="M918.4 475.2h-162.048L466.432 832h-133.76l133.76-356.8H193.28L79.04 565.76H0l67.328-268.992h399.104l-133.76-356.8h133.76l289.92 356.8h223.04c19.2 0 44.608 0 44.608 44.608 0 59.264-46.208 133.76-105.6 133.76z"  horiz-adv-x="1024" />

    
    <glyph glyph-name="nv" unicode="&#58948;" d="M855.729627 737.533959c-59.396769 58.262443-137.925351 90.355916-221.106837 90.355916-85.486263 0-165.539321-33.6035-225.39849-94.618669-59.049968-60.191519-91.143442-139.803852-90.334241-224.134114 0.6358-67.127524 22.115741-130.808721 61.188569-183.804135l-73.601129-74.995555-153.177337 150.287335a50.575037 50.575037 0 1 1-70.833952-72.199478l153.177338-150.287335-104.242377-106.250928a50.582262 50.582262 0 0 1 72.206703-70.841176l104.242376 106.243702 153.177338-150.287335a50.387187 50.387187 0 0 1 35.416976-14.471685 50.575037 50.575037 0 0 1 35.416976 86.678388l-153.177338 150.28011 73.514429 74.94498c53.002639-37.642278 116.192535-58.024017 182.388034-58.024017 85.486263 0 165.539321 33.596275 225.39849 94.618669 59.057193 60.198744 91.143442 139.803852 90.341466 224.134114-0.794751 84.337487-34.39825 163.306795-94.596994 222.371213z m-67.94395-375.66415c-40.684005-41.47153-95.08107-64.302547-153.191787-64.302547-56.542891 0-109.914006 21.805066-150.272885 61.41977-40.92243 40.134904-63.753447 93.802244-64.288097 151.125435-0.5491 57.323192 21.248741 111.416807 61.398095 152.332012 40.684005 41.47153 95.08107 64.302547 153.191787 64.302547 56.528441 0 109.899555-21.812291 150.272885-61.41977 40.90798-40.134904 63.738997-93.809469 64.288097-151.125436 0.5491-57.323192-21.248741-111.416807-61.398095-152.332011z"  horiz-adv-x="1024" />

    
    <glyph glyph-name="rili" unicode="&#58893;" d="M217.6 110.933333h174.933333v119.466667H217.6v-119.466667m529.066667 725.333334v-140.8c0-12.8 4.266667-17.066667 17.066666-17.066667h25.6c12.8 0 17.066667 4.266667 17.066667 17.066667V836.266667c0 12.8-4.266667 17.066667-17.066667 17.066666h-25.6c-12.8 0-17.066667-12.8-17.066666-17.066666z m-529.066667 0v-149.333334c0-4.266667 4.266667-12.8 12.8-12.8h29.866667c4.266667 0 12.8 4.266667 12.8 12.8V836.266667c0 4.266667-4.266667 12.8-12.8 12.8h-29.866667c-8.533333 4.266667-12.8 0-12.8-12.8z m0-550.4h174.933333v119.466666H217.6v-119.466666M682.666667 285.866667h119.466666v119.466666H682.666667v-119.466666m179.2 507.733333v-85.333333c0-51.2-38.4-85.333333-85.333334-85.333334-51.2 0-85.333333 38.4-85.333333 85.333334v85.333333H332.8v-85.333333c0-51.2-38.4-85.333333-85.333333-85.333334-51.2 0-85.333333 38.4-85.333334 85.333334v85.333333C98.133333 793.6 42.666667 738.133333 42.666667 674.133333v-644.266666C42.666667-29.866667 98.133333-85.333333 162.133333-85.333333h704c64 0 119.466667 55.466667 119.466667 119.466666v640c-4.266667 68.266667-59.733333 119.466667-123.733333 119.466667m55.466666-763.733333c0-29.866667-25.6-55.466667-55.466666-55.466667H153.6c-29.866667 0-55.466667 25.6-55.466667 55.466667v426.666666c0 34.133333 25.6 55.466667 55.466667 55.466667h708.266667c29.866667 0 55.466667-25.6 55.466666-55.466667v-426.666666m-465.066666 256h174.933333v119.466666h-174.933333v-119.466666m0-174.933334h174.933333v119.466667h-174.933333v-119.466667m230.4 0h119.466666v119.466667H682.666667v-119.466667m0 0"  horiz-adv-x="1024" />

    
    <glyph glyph-name="dui" unicode="&#58900;" d="M512 896C229.233778 896 0 666.766222 0 384s229.233778-512 512-512 512 229.233778 512 512S794.766222 896 512 896z m-102.712889-719.672889L223.601778 358.755556l32.796444 48.028444 152.888889-110.222222 359.111111 295.111111 32-24.888889-391.111111-390.456889z"  horiz-adv-x="1024" />

    
    <glyph glyph-name="tongjibiaodan" unicode="&#58912;" d="M480-12.8H169.6c-67.2 0-92.8 28.8-92.8 92.8v448c0 44.8 9.6 54.4 54.4 57.6h118.4c41.6 0 51.2 12.8 51.2 54.4V761.6c0 38.4 12.8 48 51.2 48h230.4c67.2 0 92.8-28.8 92.8-92.8v-220.8c0-54.4 0-54.4 54.4-54.4 16 0 19.2 3.2 19.2 19.2V726.4c0 92.8-64 156.8-156.8 156.8h-268.8c-35.2 0-64-9.6-89.6-32C163.2 787.2 96 720 32 649.6c-22.4-22.4-32-51.2-32-86.4v-502.4c0-86.4 64-150.4 150.4-150.4H448c51.2 0 51.2 0 51.2 51.2 3.2 19.2-3.2 25.6-19.2 25.6zM876.8-35.2c-41.6 38.4-80 80-118.4 118.4-12.8 12.8-19.2 25.6-22.4 41.6-9.6 54.4-22.4 108.8-32 163.2-3.2 22.4-9.6 22.4-28.8 16-99.2-32-163.2-134.4-147.2-233.6 16-112 105.6-188.8 214.4-188.8 51.2 0 92.8 16 134.4 48 12.8 12.8 12.8 22.4 0 35.2zM972.8 252.8c-9.6 9.6-12.8 6.4-22.4 0-41.6-44.8-86.4-86.4-128-128-9.6-9.6-9.6-16 0-25.6 48-44.8 92.8-92.8 137.6-137.6 80 67.2 86.4 214.4 12.8 291.2zM537.6 547.2H236.8c-51.2 0-51.2 0-51.2-51.2 0-22.4 6.4-22.4 25.6-22.4h294.4c54.4 0 54.4 0 54.4 54.4 3.2 16-6.4 19.2-22.4 19.2zM502.4 361.6H236.8c-51.2 0-48 0-51.2-51.2 0-22.4 6.4-25.6 25.6-25.6h249.6c57.6 0 57.6 0 54.4 57.6 3.2 16 0 19.2-12.8 19.2zM752 348.8v-6.4c9.6-54.4 22.4-105.6 32-163.2 48 48 92.8 96 137.6 140.8 12.8 12.8 9.6 19.2-3.2 28.8-38.4 28.8-80 48-128 48-44.8 3.2-44.8 3.2-38.4-48zM211.2 99.2h185.6c57.6 0 54.4 0 54.4 57.6 0 12.8-3.2 19.2-19.2 19.2H243.2c-54.4 0-54.4 0-54.4-54.4 0-22.4 6.4-22.4 22.4-22.4z"  horiz-adv-x="1024" />

    
    <glyph glyph-name="chengji" unicode="&#58931;" d="M989.866667 668.444444c-5.688889-167.822222-45.511111-287.288889-147.911111-295.822222h-5.688889c-14.222222-164.977778-153.6-304.355556-312.888889-310.044444V-99.555556h219.022222c8.533333 0 14.222222-5.688889 14.222222-14.222222s-5.688889-14.222222-14.222222-14.222222H256c-8.533333 0-14.222222 5.688889-14.222222 14.222222s5.688889 14.222222 14.222222 14.222222h238.933333v162.133334c-164.977778 0-304.355556 142.222222-318.577777 310.044444-102.4 8.533333-142.222222 130.844444-147.911112 295.822222 0 36.977778 5.688889 54.044444 31.288889 71.111112 39.822222 25.6 93.866667 19.911111 113.777778 19.911111h2.844445V867.555556c0 17.066667 11.377778 28.444444 28.444444 28.444444h600.177778c17.066667 0 34.133333-14.222222 34.133333-31.288889v-108.088889c2.844444 0 5.688889 2.844444 8.533333 2.844445 19.911111 0 73.955556 8.533333 113.777778-19.911111 22.755556-14.222222 31.288889-31.288889 28.444445-71.111112zM176.355556 728.177778c-17.066667 0-76.8 5.688889-93.866667-8.533334-36.977778-28.444444-22.755556-85.333333-22.755556-99.555555 0-105.244444 54.044444-213.333333 116.622223-216.177778V728.177778z m631.466666 136.533333H207.644444v-463.644444c0-167.822222 150.755556-307.2 287.288889-307.2h19.911111c136.533333 0 295.822222 145.066667 295.822223 307.2V864.711111h-2.844445zM938.666667 719.644444c-17.066667 14.222222-76.8 8.533333-91.022223 8.533334-2.844444 0-5.688889 0-8.533333 2.844444v-327.111111h2.844445c62.577778 0 116.622222 108.088889 116.622222 216.177778 2.844444 17.066667 17.066667 71.111111-19.911111 99.555555zM503.466667 170.666667h-17.066667c-8.533333 0-14.222222 5.688889-17.066667 14.222222 0 8.533333 5.688889 14.222222 14.222223 17.066667h19.911111c8.533333 0 14.222222-5.688889 17.066666-14.222223 0-8.533333-5.688889-17.066667-17.066666-17.066666 2.844444 0 2.844444 0 0 0z m-71.111111 2.844444c-105.244444 19.911111-153.6 88.177778-153.6 213.333333v88.177778c0 8.533333 5.688889 17.066667 17.066666 17.066667 8.533333 0 17.066667-5.688889 17.066667-17.066667v-88.177778c0-108.088889 36.977778-164.977778 128-182.044444 8.533333-2.844444 14.222222-8.533333 11.377778-17.066667-5.688889-8.533333-11.377778-14.222222-19.911111-14.222222z"  horiz-adv-x="1024" />

    
    <glyph glyph-name="message" unicode="&#58983;" d="M832.9 768h-641.8c-69.9 0-127.1-57.2-127.1-127.1v-385.7c0-70 57.2-127.2 127.1-127.2h0.9v-128.3l213.5 128.3h427.4c69.9 0 127.1 57.2 127.1 127.1v385.8c0 69.9-57.2 127.1-127.1 127.1zM256 383.8c-35.3 0-64 28.7-64 64s28.7 64 64 64 64-28.7 64-64-28.6-64-64-64zM512 383.8c-35.3 0-64 28.7-64 64s28.7 64 64 64 64-28.7 64-64-28.7-64-64-64zM768.1 383.8c-35.3 0-64 28.7-64 64s28.7 64 64 64 64-28.7 64-64-28.6-64-64-64z"  horiz-adv-x="1024" />

    
    <glyph glyph-name="cuowuguanbiquxiao-fangkuang" unicode="&#59624;" d="M864 768H160c-17.6 0-32-14.4-32-32v-704c0-17.6 14.4-32 32-32h704c17.6 0 32 14.4 32 32V736c0 17.6-14.4 32-32 32zM750.4 190.4l-45.6-45.6L512 338.4 318.4 145.6l-45.6 45.6L467.2 384 273.6 577.6l45.6 45.6L512 428.8l193.6 193.6 45.6-45.6L557.6 384l192.8-193.6z"  horiz-adv-x="1024" />

    
    <glyph glyph-name="wenjianjia-zhankai" unicode="&#59021;" d="M40.96 711.68c0 45.056 36.864 81.92 81.92 81.92h256c45.056 0 81.92-36.864 81.92-81.92v-20.48c0-22.528 18.432-40.96 40.96-40.96h296.96c45.056 0 81.92-36.864 81.92-81.92v-20.48h-606.208c-45.056 0-88.064-36.864-96.256-79.872l-90.112-493.568c-26.624 0-47.104 36.864-47.104 81.92v655.36z m182.272-264.192c6.144 32.768 38.912 59.392 73.728 59.392h634.88c34.816 0 55.296-26.624 49.152-59.392L901.12 35.84c-6.144-32.768-38.912-59.392-73.728-59.392h-696.32l92.16 471.04z"  horiz-adv-x="1024" />

    
    <glyph glyph-name="shoucang" unicode="&#59303;" d="M794.944-112a53.376 53.376 0 0 0-25.344 6.4L512 31.744 254.464-105.6a54.912 54.912 0 0 0-66.752 12.928 54.4 54.4 0 0 0-12.032 44.352l49.344 291.392L16.192 449.408a54.272 54.272 0 0 0-13.44 55.872 54.016 54.016 0 0 0 43.584 36.864l288.128 42.432L463.36 849.472c18.304 37.696 78.976 37.696 97.344 0l128.96-264.896 288.064-42.432c20.416-3.008 37.12-17.152 43.584-36.864a54.4 54.4 0 0 0-13.44-55.936l-208.768-206.336 49.344-291.456a54.4 54.4 0 0 0-53.504-63.552zM74.688 481.6l198.784-196.48a54.592 54.592 0 0 0 15.424-47.872l-47.104-278.4 244.864 131.904a54.976 54.976 0 0 0 50.688 0l244.672-130.432-46.848 276.864a54.4 54.4 0 0 0 15.552 48.064l198.656 196.352-274.304 40.384a54.016 54.016 0 0 0-40.832 30.08L512 803.2 389.76 552a54.144 54.144 0 0 0-40.832-29.952l-274.24-40.448z"  horiz-adv-x="1024" />

    
    <glyph glyph-name="jihua" unicode="&#58957;" d="M659.67331555 553.15683555c-175.59665778 0-317.94972445-142.35079111-317.94972444-317.94744888 0-175.60120889 142.35192889-317.94972445 317.94972444-317.94972445 175.60120889 0 317.94972445 142.34851555 317.94972445 317.94972445-0.00113778 175.59779555-142.34851555 317.94744889-317.94972445 317.94744888z m0-593.50584888c-152.18346667 0-275.55384889 123.37038222-275.55384888 275.5584 0 152.18346667 123.37038222 275.55384889 275.55384888 275.55384888 152.18801778 0 275.55612445-123.37038222 275.55612445-275.55384888 0-152.18801778-123.36924445-275.5584-275.55612445-275.5584zM214.54506667 362.38677333c-35.1232 0-63.59153778-28.4672-63.59153778-63.5904 0-35.11864889 28.46947555-63.58812445 63.59153778-63.58812444 35.11864889 0 63.58812445 28.46947555 63.58812444 63.58812444 0 35.1232-28.46947555 63.5904-63.58812444 63.5904z m0-84.78606222c-11.70659555 0-21.19907555 9.49020445-21.19907556 21.1968 0 11.70887111 9.49134222 21.19907555 21.19907556 21.19907556 11.70432 0 21.19452445-9.49020445 21.19452444-21.19907556 0-11.70659555-9.48906667-21.1968-21.19452444-21.1968zM87.36540445 65.63384888999997c-23.41432889 0-42.39587555 18.97927111-42.39587556 42.3936V743.92917333c0 23.41205333 18.98154667 42.39132445 42.39587556 42.39132445h42.3936c0.00113778-35.11978667 28.4672-63.58812445 63.58812444-63.58812445s63.58926222 28.46833778 63.5904 63.58812445h84.7872c0.00113778-35.11978667 28.47175111-63.58812445 63.5904-63.58812445s63.58926222 28.46833778 63.5904 63.58812445h84.7872c0.00113778-35.11978667 28.47175111-63.58812445 63.5904-63.58812445 35.11978667 0 63.5904 28.46833778 63.59153778 63.58812445h42.3936c23.41205333 0 42.39132445-18.97927111 42.39132444-42.39132445v-164.23025778a357.91985778 357.91985778 0 0 0 42.3936-16.01763555V743.92917333c0 46.82296889-37.95854222 84.78492445-84.78492444 84.78492445h-42.3936c0 35.12092445-28.47175111 63.5904-63.59153778 63.5904-35.11864889 0-63.5904-28.46947555-63.5904-63.5904h-84.78606222c0 35.12092445-28.47175111 63.5904-63.5904 63.5904s-63.5904-28.46947555-63.5904-63.5904h-84.78606222c0 35.12092445-28.46947555 63.5904-63.5904 63.5904s-63.58812445-28.46947555-63.58812445-63.5904h-42.3936c-46.82752 0-84.78833778-37.96081778-84.78833778-84.78492445v-635.90172444c0-46.82524445 37.96081778-84.78606222 84.78833778-84.78606222h280.90368a360.37973333 360.37973333 0 0 0-26.60124445 42.3936h-254.3047111z m508.71978666 763.07911111c0 11.70659555 9.48792889 21.19907555 21.19452444 21.19907555s21.1968-9.49134222 21.1968-21.19907555v-42.39132445c0-11.70887111-9.49020445-21.19907555-21.1968-21.19907555s-21.19452445 9.49020445-21.19452444 21.19907555v42.39132445z m-211.96913778 0c0 11.70659555 9.49134222 21.19907555 21.1968 21.19907555 11.70659555 0 21.1968-9.49134222 21.1968-21.19907555v-42.39132445c0-11.70887111-9.49020445-21.19907555-21.1968-21.19907555-11.70432 0-21.1968 9.49020445-21.1968 21.19907555v42.39132445z m-211.96572444 0c0 11.70659555 9.49134222 21.19907555 21.1968 21.19907555 11.70887111 0 21.19907555-9.49134222 21.19907556-21.19907555v-42.39132445c0-11.70887111-9.49020445-21.19907555-21.19907556-21.19907555-11.70432 0-21.1968 9.49020445-21.1968 21.19907555v42.39132445z m678.29418666-572.30677333H719.62965333c-6.38634667 18.06222222-20.69504 32.37205333-38.7584 38.7584V425.97717333c0 11.70659555-9.49134222 21.1968-21.19907555 21.1968-11.70432 0-21.19452445-9.49020445-21.19452445-21.1968v-130.81144888c-24.69546667-8.73016889-42.3936-32.27079111-42.3936-59.9552 0-35.12092445 28.46947555-63.59153778 63.58812445-63.59153778 27.68668445 0 51.22730667 17.69927111 59.95747555 42.39587555h130.81486222c11.70432 0 21.19452445 9.49020445 21.19452445 21.1968 0 11.70432-9.48906667 21.19452445-21.19452445 21.19452445z m-190.7712-42.3936c-11.70432 0-21.19452445 9.49020445-21.19452444 21.1968s9.49020445 21.1968 21.19452444 21.1968c11.70659555 0 21.19907555-9.49020445 21.19907556-21.1968-0.00113778-11.70659555-9.49248-21.1968-21.19907556-21.1968zM214.54506667 595.55043555c-35.1232 0-63.59153778-28.46947555-63.59153778-63.5904 0-35.11864889 28.46947555-63.58812445 63.59153778-63.58812444 35.11864889 0 63.58812445 28.46947555 63.58812444 63.58812444 0 35.12092445-28.46947555 63.5904-63.58812444 63.5904z m0-84.7872c-11.70659555 0-21.19907555 9.49134222-21.19907556 21.1968 0 11.70887111 9.49134222 21.19907555 21.19907556 21.19907556 11.70432 0 21.19452445-9.49020445 21.19452444-21.19907556 0-11.70432-9.48906667-21.1968-21.19452444-21.1968z m190.76778666 84.7872c-35.11864889 0-63.5904-28.46947555-63.5904-63.5904 0-28.81877333 19.17838222-53.1456 45.46332445-60.95075555a362.19790222 362.19790222 0 0 0 81.12128 69.55576889c-4.20181333 31.04768-30.79509333 54.98538667-62.99420445 54.98538666z m0-84.7872c-11.70432 0-21.1968 9.49134222-21.1968 21.1968 0 11.70887111 9.49134222 21.19907555 21.1968 21.19907556 11.70659555 0 21.1968-9.49020445 21.1968-21.19907556 0-11.70432-9.49020445-21.1968-21.1968-21.1968z"  horiz-adv-x="1024" />

    
    <glyph glyph-name="xuexiao" unicode="&#58904;" d="M905.960999-128h-802.478586c-10.264261 0-18.662293 8.398032-18.662293 18.662293s8.398032 18.662293 18.662293 18.662292h802.478586c10.264261 0 18.662293-8.398032 18.662292-18.662292s-8.398032-18.662293-18.662292-18.662293zM905.027884 415.072717h-800.612356c-10.264261 0-18.662293 8.398032-18.662293 18.662293s8.398032 18.662293 18.662293 18.662293h800.612356c10.264261 0 18.662293-8.398032 18.662293-18.662293s-8.398032-18.662293-18.662293-18.662293zM104.415528 415.072717c-5.971934 0-11.943867 2.985967-15.489703 8.211409a18.64363 18.64363 0 0 0 5.038819 25.940587L494.270822 718.148351a18.64363 18.64363 0 0 0 25.940587-5.038819 18.64363 18.64363 0 0 0-5.038819-25.940587L114.866412 418.245307c-3.17259-2.239475-6.905048-3.17259-10.450884-3.17259zM905.027884 415.072717c-3.545836 0-7.278294 1.119738-10.450884 3.17259L494.270822 687.168945a18.64363 18.64363 0 0 0-5.038819 25.940587c5.785311 8.584655 17.355932 10.82413 25.940587 5.038819l400.306178-269.110261c8.584655-5.785311 10.82413-17.355932 5.038819-25.940587-3.545836-5.225442-9.517769-8.024786-15.489703-8.024786zM180.184436-128c-10.264261 0-18.662293 8.398032-18.662293 18.662293V433.175141c0 10.264261 8.398032 18.662293 18.662293 18.662293s18.662293-8.398032 18.662293-18.662293v-542.512848c0-10.450884-8.398032-18.662293-18.662293-18.662293zM395.920539-128c-10.264261 0-18.662293 8.398032-18.662292 18.662293V433.175141c0 10.264261 8.398032 18.662293 18.662292 18.662293s18.662293-8.398032 18.662293-18.662293v-542.512848c0-10.450884-8.398032-18.662293-18.662293-18.662293zM827.392746-128c-10.264261 0-18.662293 8.398032-18.662292 18.662293V433.175141c0 10.264261 8.398032 18.662293 18.662292 18.662293s18.662293-8.398032 18.662293-18.662293v-542.512848c0-10.450884-8.398032-18.662293-18.662293-18.662293zM611.656643-128c-10.264261 0-18.662293 8.398032-18.662293 18.662293V433.175141c0 10.264261 8.398032 18.662293 18.662293 18.662293s18.662293-8.398032 18.662293-18.662293v-542.512848c0-10.450884-8.398032-18.662293-18.662293-18.662293zM504.721706 475.351923c-39.564061 0-71.849827 32.285766-71.849827 71.849827s32.285766 71.849827 71.849827 71.849826 71.849827-32.285766 71.849827-71.849826-32.285766-71.849827-71.849827-71.849827z m0 106.375068c-19.035539 0-34.525241-15.489703-34.525242-34.525241s15.489703-34.525241 34.525242-34.525242 34.525241 15.489703 34.525241 34.525242-15.489703 34.525241-34.525241 34.525241z"  horiz-adv-x="1024" />

    
    <glyph glyph-name="shangchuan" unicode="&#58995;" d="M856.448 289.28v-191.744a31.552 31.552 0 0 0-31.488-31.488H194.624a31.552 31.552 0 0 0-31.488 31.488V289.28a31.488 31.488 0 1 0 62.976 0v-160.256h567.36V289.28a31.488 31.488 0 1 0 62.976 0zM359.872 514.752c-8.192 0-10.56 5.184-5.376 11.392L500.48 702.848a11.776 11.776 0 0 0 18.752 0l145.856-176.704c5.184-6.272 2.752-11.392-5.376-11.392H359.872zM540.288 258.752a30.464 30.464 0 1 0-61.056 0V553.344a30.464 30.464 0 1 0 61.056 0v-294.592z"  horiz-adv-x="1024" />

    
    <glyph glyph-name="DOC" unicode="&#58882;" d="M592.5 799.5h21.273l206.727-242-5-14.448h-178L606.621 557.5l-26.121 41zM820.535 553.719c-2.251 6.11-6.592 11.552-10.583 16.233L620.981 790.898c-4.879 5.722-11.302 10.167-18.579 13.525C595.125 807.781 587.214 809 579.694 809H221.886c-13.705 0-25.077-4.878-35.534-15.335S173 769.852 173 756.147V27.83c0-13.705 2.895-27.549 13.352-38.006S208.181-26 221.886-26h546.237c13.705 0 29.572 5.367 40.029 15.824C818.61 0.281 826 14.126 826 27.831v507.37c0 6.152-3.214 12.408-5.465 18.518z m-21.426 8.536c-0.103 0.278-0.266 0.745-0.373 0.745H642.859c-12.514 0-21.509 1.905-31.056 11.452C602.255 584 601 593.644 601 606.158V792.067c0-0.556 1.169-0.983 2.787-1.73 6.644-3.067 11.201-7.229 15.656-12.454l171.52-201.488c3.463-4.06 5.733-2.394 7.773-13.394h0.637c-0.112-0.001-0.145-1.069-0.264-0.746zM904.85 322.533C894.393 332.99 878.223 338 864.518 338H837V535.201c0 1.402-2.181 2.808-2.071 4.22 0.403 5.172-1.349 12.253-4.382 20.48-2.38 6.459-5.07 13.775-10.771 20.454L631.994 801.322c-6.6 7.745-14.205 11.176-20.915 14.199l-2.552 1.161c-7.494 3.462-14.596 3.907-19.946 3.907-1.621 0-3.243-0.252-4.879-0.299-1.328-0.042-2.662-0.289-4.006-0.289h-357.81c-22.681 0-38.105-5.751-49.867-17.508C161.283 791.745 151 776.951 151 756.147V27.83c0-17.514 7.009-37.813 21.025-51.839C186.046-38.019 204.372-47 221.886-47h546.237c20.804 0 38.11 12.255 48.862 22.997C828.737-12.247 837 5.144 837 27.831V103h27.518c13.705 0 29.875 5.131 40.332 15.588 10.457 10.457 18.15 24.064 18.15 37.77V284.884c0 13.705-7.693 27.193-18.15 37.649zM607.355 780.318L792.051 563H636.538c-9.387 0-18.117 4.969-25.532 12.39-7.37 7.364-10.006 18.426-10.006 27.907v182.33c0-2.003 4.692-3.361 6.355-5.309zM805 27.831c0-9.523-3.811-22.315-10.672-29.176-9.576-9.576-19.076-13.655-26.205-13.655H221.886c-8.849 0-18.922 5.867-26.704 13.649-7.787 7.787-11.182 20.333-11.182 29.182V756.147c0 7.128 1.606 14.117 11.177 23.687 6.867 6.867 17.186 8.165 26.709 8.165H569v-184.703c0-18.111 5.865-37.087 19.348-50.564C601.882 539.198 618.526 531 636.538 531H805v-193H425.386c-13.705 0-25.327-5.01-35.784-15.467C379.145 312.077 376 298.589 376 284.884v-128.526c0-13.705 3.145-27.313 13.602-37.77C400.059 108.131 411.681 103 425.386 103H805v-75.169zM493.147 279.242h45.3c11.312 0 20.061-1.119 26.253-3.363 11.417-4.158 19.047-11.793 22.891-22.891 2.882-8.535 4.32-17.661 4.32-27.367 0-9.607-1.386-18.675-4.163-27.216-2.777-8.749-7.363-15.203-13.765-19.366-4.058-2.563-8.509-4.299-13.367-5.204-4.853-0.905-12.243-1.36-22.169-1.36h-45.3V279.242z m22.734-19.047v-68.672h22.566c9.926 0 16.808 2.186 20.647 6.563 2.348 2.777 4.247 6.668 5.685 11.683 1.443 5.015 2.16 10.35 2.16 16.008 0 6.297-0.852 12.06-2.557 17.29-1.71 5.224-3.954 9.121-6.725 11.683-4.058 3.629-10.46 5.444-19.209 5.444h-22.567v0.001zM654.652 279.88c10.669 0 20.061-1.815 28.173-5.439 9.497-4.377 16.165-11.689 20.009-21.928 2.986-8.007 4.482-17.399 4.482-28.173 0-10.888-1.815-20.328-5.444-28.335-4.586-9.497-11.631-16.165-21.128-20.009-7.044-2.772-15.151-4.158-24.329-4.158-12.06 0-22.519 2.238-31.373 6.72-7.473 3.734-13.179 9.607-17.127 17.609s-5.925 17.713-5.925 29.13c0 20.386 5.068 34.898 15.208 43.543 8.534 7.254 21.022 10.935 37.454 11.04z m0.162-17.928c-10.46 0-17.928-3.415-22.409-10.24-3.629-5.34-5.444-13.927-5.444-25.772 0-12.489 2.244-21.667 6.725-27.535 4.482-5.758 11.573-8.64 21.285-8.64 9.393 0 16.301 2.934 20.731 8.802s6.642 14.941 6.642 27.21c0 11.207-1.815 19.742-5.439 25.61-4.163 6.941-11.527 10.461-22.091 10.565zM804.474 191.523v-19.047h-37.293c-7.044 0-12.436 0.371-16.17 1.119-13.121 2.563-22.462 9.869-28.011 21.928-3.629 8.111-5.444 18.142-5.444 30.097 0 14.298 2.777 25.929 8.326 34.893 4.053 6.506 9.471 11.26 16.249 14.246 6.773 2.986 15.496 4.482 26.17 4.482h36.174v-19.047h-33.612c-10.14 0-17.556-2.725-22.253-8.164-3.948-4.482-5.92-12.593-5.92-24.329 0-15.799 3.039-26.149 9.121-31.054 4.267-3.42 10.941-5.125 20.009-5.125h32.654v0.001zM382.13 534.223h3.65c7.124 0 12.133 1.005 15.02 2.971 1.976 1.443 2.97 3.514 2.97 6.234 0 1.611-0.272 3.285-0.816 5-0.178 0.816-1.526 4.184-4.058 10.146l-9.727 22.843h-64.786l-7.699-17.844c-2.531-5.941-3.786-10.857-3.786-14.748 0-5.125 2.071-8.911 6.213-11.359 2.437-1.444 8.43-2.511 17.99-3.243v-5h-61v5c6.589 1.005 11.997 3.724 16.233 8.18 4.236 4.477 9.466 13.682 15.69 27.655l65.581 146.328h2.573l66.135-150.387c6.307-14.245 11.496-23.199 15.554-26.902 3.054-2.803 7.384-4.414 12.98-4.874v-5H382.13v5z m-24.882 120.369l-28.126-63.155h55.445l-27.319 63.155z"  horiz-adv-x="1024" />

    
    <glyph glyph-name="JPEG" unicode="&#58883;" d="M590.5 799.5h21.273l206.727-242-5-14.448h-178L604.621 557.5l-26.121 41zM820.885 551.027c-2.251 6.11-6.417 11.552-10.408 16.233L621.594 788.206c-4.879 5.722-11.258 11.513-18.535 14.871C595.782 806.435 587.915 809 580.394 809H222.587c-13.705 0-25.428-6.224-35.885-16.681C176.246 781.863 173 767.161 173 753.456V25.14c0-13.705 3.246-26.204 13.703-36.661C197.159-21.978 208.882-26 222.587-26h546.237c13.705 0 29.222 4.022 39.679 14.479C818.96-1.064 826 11.434 826 25.139V532.51c0 6.151-2.863 12.407-5.115 18.517z m-21.076 11.228c-0.103 0.278-0.266 0.745-0.373 0.745H643.559c-12.514 0-21.859 0.559-31.407 10.106-9.548 9.548-11.153 17.846-11.153 30.36V789.375c0-0.556 1.519-0.983 3.137-1.73 6.644-3.067 11.376-7.229 15.831-12.454l171.607-200.143c3.463-4.06 5.821-12.049 7.861-12.049h0.637c-0.11 0.001-0.144-1.067-0.263-0.744zM905.201 321.187C894.744 331.644 878.925 338 865.219 338H837V532.509c0 1.402-1.83 2.808-1.721 4.22 0.403 5.172-0.409 12.253-3.442 20.48-2.38 6.459-5.365 13.775-11.066 20.454L632.843 798.63c-6.6 7.745-14.278 11.176-20.988 14.199l-2.589 1.161c-7.494 3.462-14.615 3.907-19.965 3.907-1.621 0-3.252 1.093-4.889 1.046-1.329-0.042-2.672 1.057-4.016 1.057H222.587c-22.681 0-38.455-7.097-50.217-18.854-10.737-10.747-21.37-26.886-21.37-47.69V25.14c0-17.514 7.36-36.467 21.375-50.493C186.396-39.365 205.072-47 222.587-47h546.237c20.804 0 37.76 10.909 48.512 21.651C829.087-13.592 837 2.453 837 25.139V103h28.219c13.706 0 29.525 3.785 39.982 14.242S923 139.961 923 153.666V282.192c0 13.705-7.342 28.539-17.799 38.995zM601 784.046l-0.663-0.503c5.376-2.427 6.56-2.421 8.396-4.57L792.752 563H637.238c-9.387 0-18.467 3.624-25.882 11.045-7.369 7.363-10.356 17.08-10.356 26.561v183.44z m204-758.907c0-9.523-3.46-20.969-10.321-27.831-9.576-9.575-18.727-12.308-25.855-12.308H222.587c-8.849 0-19.272 4.522-27.054 12.303-7.787 7.788-11.533 18.988-11.533 27.836V753.456c0 7.128 1.957 15.463 11.528 25.033 6.867 6.867 17.536 9.511 27.059 9.511H569v-187.394c0-18.111 6.216-35.742 19.698-49.219C602.233 537.852 619.227 531 637.238 531H805v-193H426.087c-13.705 0-25.678-6.356-36.134-16.813C379.496 310.731 376 295.897 376 282.192v-128.526c0-13.705 3.496-25.967 13.953-36.424C400.409 106.785 412.382 103 426.087 103H805v-77.861zM447.103 169.917v19.047h21.766c6.83 0 11.872 0.241 15.124 0.722 3.263 0.481 5.742 1.464 7.447 2.96 2.343 1.815 3.975 4.43 4.885 7.845 0.9 3.415 1.36 8.802 1.36 16.165v60.027h22.572v-60.027c0-7.468-0.272-13.121-0.805-16.965-0.533-3.844-1.6-7.473-3.201-10.883-4.058-9.074-11.422-14.889-22.09-17.452-5.115-0.957-12.75-1.438-22.885-1.438l-24.173-0.001zM563.633 207.21v-37.293h-22.729V276.682h53.302c9.706 0 16.652-0.696 20.804-2.081 7.05-2.348 12.593-7.201 16.652-14.565 2.991-5.549 4.487-11.579 4.487-18.09 0-5.439-0.994-10.59-2.971-15.443-1.966-4.858-4.717-8.833-8.242-11.929-3.201-2.772-6.589-4.696-10.156-5.758-3.577-1.072-8.462-1.606-14.654-1.606h-36.493z m0 19.052h30.897c5.544 0 9.445 0.852 11.683 2.557 3.305 2.667 4.958 7.311 4.958 13.927 0 7.149-2.51 11.741-7.52 13.77-1.82 0.743-4.696 1.119-8.64 1.119h-31.378v-31.373zM730.587 276.682v-19.047h-29.611c-7.688 0-13.294-0.539-16.808-1.6-3.525-1.072-6.464-3.148-8.807-6.244-1.6-2.134-2.699-4.268-3.284-6.401-0.586-2.139-1.088-5.763-1.517-10.888h60.027v-19.047H670.56c0.847-9.178 3.577-15.553 8.158-19.125 4.592-3.577 12.384-5.366 23.377-5.366h28.492v-19.047h-29.611c-8.012 0-15.051 0.481-21.139 1.438-9.602 1.606-17.227 5.815-22.885 12.646-8.106 9.821-12.164 23.105-12.164 39.861 0 18.566 5.711 33.026 17.122 43.376 3.954 3.525 8.138 5.978 12.572 7.364 4.424 1.386 10.376 2.081 17.844 2.081l38.261-0.001zM787.728 233.301h52.339v-63.385h-47.695c-8.221 0-14.758 0.612-19.612 1.841a35.144 35.144 0 0 0-13.21 6.485c-11.202 8.64-16.808 23.529-16.808 44.657 0 13.765 2.667 25.234 8.012 34.417 3.943 6.72 9.33 11.626 16.16 14.722s15.689 4.644 26.578 4.644h46.576v-19.047h-44.014c-9.508 0-16.39-2.081-20.658-6.244-5.115-4.911-7.677-13.712-7.677-26.41 0-6.511 0.659-12.379 1.998-17.609s3.18-9.126 5.523-11.683c2.029-2.348 4.832-4.058 8.409-5.125 3.567-1.067 7.97-1.6 13.2-1.6h20.647v25.291h-29.768v19.046zM279.554 554.298h160.323V713.826H279.554v-159.528z m15.575 21.755h-0.157c-0.325 0-0.492 0.168-0.492 0.502v0.335c4.121 8.242 26.567 75.245 33.826 90.098 0.167 0.334 0.669 0.501 0.827 0.167 0 0 1.809-16.087 37.79-60.644l21.546 24.036c0.502 0.167 0.827 0 0.827 0 0-0.167 0-0.167 0.167-0.167 9.905-12.552 25.563-40.959 35.635-53.49 0.335-0.335 0.168-0.838-0.334-0.838l-129.635 0.001z m101.268 70.916c-11.024 0-19.705 9.016-19.705 19.706 0 10.711 8.681 19.727 19.705 19.727 10.69 0 19.717-9.016 19.717-19.727 0-10.69-9.027-19.706-19.717-19.706z"  horiz-adv-x="1024" />

    
    <glyph glyph-name="MOV" unicode="&#58884;" d="M590.5 799.5h21.273l206.727-242-5-14.448h-178L604.621 557.5l-26.121 41zM821.712 553.821c-2.251 6.11-6.003 11.552-9.995 16.233L623.041 791.001c-4.879 5.722-11.155 10.116-18.432 13.474S589.568 809 582.048 809H224.24c-13.705 0-26.254-4.827-36.711-15.284C177.072 783.26 173 769.955 173 756.25v-728.317c0-13.705 4.072-27.601 14.529-38.058S210.535-26 224.24-26h546.237c13.705 0 28.395 5.419 38.852 15.876S826 14.229 826 27.934v507.37c0 6.152-2.037 12.408-4.288 18.517z m-20.249 8.434c-0.103 0.278-0.266 0.745-0.373 0.745H645.213c-12.514 0-22.686 1.956-32.233 11.504-9.548 9.547-11.98 19.243-11.98 31.757V792.17c0-0.556 2.346-0.983 3.964-1.73 6.644-3.067 11.789-7.229 16.244-12.454l171.814-201.54c3.463-4.06 6.028-2.446 8.067-13.446h0.637c-0.111 0-0.144-1.068-0.263-0.745zM906.027 322.584C895.571 333.041 880.578 338 866.872 338H837V535.304c0 1.402-1.004 2.808-0.894 4.22 0.403 5.172 1.152 12.253-1.882 20.48-2.38 6.459-5.733 13.775-11.433 20.454L634.679 801.425c-6.6 7.745-14.37 11.176-21.08 14.199l-2.635 1.161c-7.494 3.462-14.638 3.907-19.988 3.907-1.621 0-3.263-0.304-4.9-0.351-1.328-0.042-2.683-0.34-4.027-0.34H224.24c-22.681 0-39.282-5.7-51.043-17.456C162.46 791.796 151 777.054 151 756.25v-728.317c0-17.514 8.186-37.864 22.202-51.891C187.223-37.967 206.726-47 224.24-47h546.237c20.804 0 36.933 12.307 47.685 23.048C829.914-12.195 837 5.247 837 27.934V103h29.872c13.705 0 28.698 5.182 39.155 15.639C916.484 129.096 923 142.755 923 156.46V284.987c0 13.705-6.516 27.141-16.973 37.597zM601 786.84l0.164-0.503c5.376-2.427 8.121-3.818 9.957-5.967L794.405 563H638.892c-9.387 0-19.293 5.021-26.709 12.442C604.814 582.805 601 593.919 601 603.4V786.84z m204-758.906c0-9.523-2.633-22.366-9.495-29.228C785.93-10.87 777.606-15 770.477-15H224.24c-8.849 0-20.099 5.919-27.881 13.701-7.787 7.787-12.359 20.384-12.359 29.233V756.25c0 7.128 2.784 14.065 12.354 23.636 6.867 6.867 18.363 8.114 27.886 8.114H569v-184.6c0-18.111 7.043-37.139 20.525-50.616C603.06 539.25 620.88 531 638.892 531H805v-193H427.74c-13.705 0-26.505-4.959-36.962-15.416C380.323 312.128 376 298.692 376 284.987V156.46c0-13.705 4.323-27.364 14.779-37.821C401.236 108.182 414.035 103 427.74 103H805v-75.066zM505.344 279.345l26.567-83.394 28.011 83.394h33.136V172.58h-21.609v80.036l-27.854-80.036h-23.367l-26.41 80.036v-80.036h-21.609V279.345h33.135zM661.891 279.983c10.669 0 20.061-1.815 28.167-5.439 9.497-4.377 16.17-11.688 20.009-21.928 2.991-8.007 4.487-17.399 4.487-28.173 0-10.888-1.82-20.328-5.449-28.335-4.581-9.497-11.631-16.165-21.128-20.009-7.039-2.772-15.145-4.158-24.329-4.158-12.06 0-22.519 2.238-31.368 6.72-7.479 3.734-13.179 9.607-17.133 17.609-3.943 8.002-5.92 17.713-5.92 29.13 0 20.386 5.062 34.898 15.208 43.543 8.536 7.254 21.025 10.935 37.456 11.04z m0.157-17.928c-10.459 0-17.928-3.415-22.404-10.24-3.629-5.34-5.449-13.927-5.449-25.772 0-12.489 2.249-21.667 6.725-27.535 4.487-5.758 11.579-8.64 21.285-8.64 9.393 0 16.306 2.934 20.731 8.802 4.435 5.868 6.642 14.941 6.642 27.21 0 11.207-1.809 19.742-5.439 25.61-4.163 6.941-11.527 10.461-22.091 10.565zM834.285 279.345L787.541 172.58h-22.729l-44.976 106.765h25.605l31.379-80.355 31.849 80.355h25.616zM363.195 745.546c-61.865 0-112.025-49.011-112.025-110.877s50.159-120.175 112.025-120.175c61.88 0 112.025 58.309 112.025 120.175 0.001 61.866-50.145 110.877-112.025 110.877z m0-197.302c-43.212 0-78.248 43.212-78.248 86.426 0 43.212 35.035 77.098 78.248 77.098 43.227 0 78.248-33.886 78.248-77.098 0.001-43.214-35.021-86.426-78.248-86.426zM360.319 588.452a10.708 10.708 0 0 0-11.572-1.977 10.707 10.707 0 0 0-6.433 9.819v75.593c0 4.132 2.405 8.065 6.433 9.819a10.706 10.706 0 0 0 11.572-1.977l40.638-37.797c2.102-1.955 3.416-4.746 3.416-7.843s-1.314-5.887-3.416-7.843l-40.638-37.794z"  horiz-adv-x="1024" />

    
    <glyph glyph-name="MP" unicode="&#58885;" d="M594.478 800.5h21.273l206.727-242-5-14.448h-178L608.599 558.5l-26.121 41zM824.132 553.77c-2.251 6.11-4.793 11.552-8.785 16.233L627.276 790.949c-4.879 5.722-10.852 10.141-18.129 13.5C601.87 807.807 594.409 809 586.888 809H229.081c-13.705 0-28.675-4.853-39.131-15.31-10.458-10.456-16.95-23.786-16.95-37.492v-728.317c0-13.705 6.493-27.575 16.949-38.032S215.376-26 229.081-26h546.237c13.705 0 25.975 5.393 36.432 15.85S826 14.177 826 27.882v507.37c0 6.152 0.384 12.408-1.868 18.518z m-17.829 8.485c-0.103 0.278-0.266 0.745-0.373 0.745H650.053c-12.514 0-25.106 1.93-34.654 11.478S601 593.695 601 606.209V792.118c0-0.556 4.766-0.983 6.384-1.73 6.644-3.067 12.999-7.229 17.454-12.454l172.42-201.514c3.463-4.06 6.633-13.42 8.672-13.42h0.637c-0.111 0-0.145-1.068-0.264-0.745zM908.447 322.558C897.991 333.015 885.419 338 871.713 338H837V535.252c0 1.402 1.416 2.808 1.526 4.22 0.403 5.172 1.98 12.253-1.053 20.48-2.38 6.459-4.936 13.775-10.637 20.454L639.122 801.373c-6.6 7.745-14.171 11.176-20.881 14.199l-2.536 1.161c-7.494 3.462-14.588 3.907-19.938 3.907-1.621 0-3.238-0.278-4.875-0.325-1.328-0.042-2.658-0.315-4.002-0.315H229.081c-22.681 0-41.703-5.726-53.465-17.482C164.88 791.771 151 777.002 151 756.198v-728.317c0-17.514 10.606-37.838 24.622-51.865C189.643-37.993 211.567-47 229.081-47h546.237c20.804 0 34.512 12.281 45.264 23.023C832.334-12.221 837 5.195 837 27.882V103h34.713c13.705 0 26.278 5.156 36.734 15.613C918.904 129.07 923 142.703 923 156.408V284.935c0 13.705-4.096 27.167-14.553 37.623zM601 786.789l2.583-0.503c5.376-2.427 8.949-3.792 10.785-5.941L799.246 563H643.733c-9.387 0-21.714 4.995-29.13 12.416-7.369 7.363-13.603 18.451-13.603 27.932V786.789z m204-758.907c0-9.523-0.213-22.34-7.075-29.202-9.576-9.576-15.478-13.68-22.607-13.68H229.081c-8.849 0-22.52 5.893-30.302 13.675-7.787 7.787-14.779 20.358-14.779 29.207V756.198c0 7.128 5.204 14.091 14.774 23.662 6.867 6.867 20.784 8.14 30.307 8.14H569v-184.652c0-18.111 9.463-37.113 22.945-50.59C605.48 539.224 625.721 531 643.733 531H805v-193H432.581c-13.706 0-28.925-4.985-39.382-15.442C382.742 312.102 376 298.64 376 284.935v-128.526c0-13.705 6.742-27.338 17.199-37.795C403.656 108.156 418.875 103 432.581 103H805v-75.118zM521.071 279.425l26.572-83.394 28.011 83.394h33.136V172.66h-21.61v80.036l-27.854-80.036H535.96l-26.415 80.036v-80.036h-21.609V279.425h33.135zM653.451 209.953v-37.293h-22.734V279.425h53.307c9.706 0 16.646-0.696 20.804-2.081 7.044-2.348 12.593-7.201 16.652-14.565 2.986-5.549 4.482-11.579 4.482-18.09 0-5.439-0.988-10.59-2.965-15.443-1.972-4.858-4.722-8.833-8.242-11.929-3.201-2.772-6.589-4.696-10.161-5.758-3.577-1.072-8.462-1.606-14.648-1.606h-36.495z m0 19.052h30.892c5.544 0 9.445 0.852 11.683 2.557 3.305 2.667 4.963 7.311 4.963 13.927 0 7.149-2.51 11.741-7.526 13.77-1.815 0.743-4.696 1.119-8.64 1.119H653.45l0.001-31.373zM734.758 172.659v18.89h45.781c6.291 0 10.564 0.905 12.802 2.719 2.777 2.238 4.163 5.549 4.163 9.926 0 5.334-1.762 9.016-5.282 11.045-2.238 1.276-6.14 1.919-11.683 1.919h-35.698v18.885h35.698c6.72 0 11.098 0.858 13.127 2.563 2.453 2.029 3.677 5.177 3.677 9.445 0 4.696-1.6 8.106-4.801 10.245-1.177 0.852-2.536 1.412-4.079 1.679-1.548 0.267-4.189 0.403-7.923 0.403h-45.781v19.047h49.782c7.044-0.11 11.547-0.267 13.524-0.481s4.137-0.748 6.485-1.6c5.549-2.029 9.921-5.763 13.127-11.202 3.201-5.021 4.801-10.407 4.801-16.17 0-9.921-4.749-17.661-14.246-23.21 9.497-6.187 14.246-14.779 14.246-25.772 0-10.135-3.844-17.661-11.526-22.566a31.209 31.209 0 0 0-11.124-4.56c-4.001-0.8-10.005-1.203-18.006-1.203h-47.064v-0.002zM405.957 513.907c-0.075 13.786 15.105 24.935 33.884 24.935 4.296 0 8.555-0.648 12.615-1.715l-0.287 86.416-88.105-11.191-0.024-109.908h-0.374c0.087-0.586 0.374-1.15 0.374-1.758-0.062-13.911-24.844-25.229-43.81-25.229-18.979 0-34.195 11.318-33.971 25.229 0.223 13.869 18.193 25.04 37.01 25.04 4.06 0 8.393-0.606 12.677-1.569l-0.547 107.127h0.298l-0.075 31.169 142.388 18.032-0.224-53.678-0.099-0.02-0.3-111.52h-0.223c0.05-0.46 0.249-0.878 0.249-1.359 0.224-13.849-18.145-25.124-37.085-25.124-18.93-0.001-34.321 11.274-34.371 25.123z"  horiz-adv-x="1024" />

    
    <glyph glyph-name="PDF" unicode="&#58886;" d="M593.5 805.5h21.273l206.727-242-5-14.448h-178L607.621 563.5l-26.121 41zM822.882 554.13c-2.251 6.11-5.418 11.552-9.41 16.233L625.089 791.31c-4.879 5.722-11.008 9.961-18.286 13.319S591.909 809 584.389 809H226.581c-13.705 0-27.425-4.673-37.882-15.129s-15.7-23.606-15.7-37.311v-728.317c0-13.705 5.243-27.755 15.7-38.212s24.176-16.03 37.882-16.03h546.237c13.705 0 27.225 5.573 37.682 16.03s15.5 24.507 15.5 38.212v507.37c0 6.152-0.866 12.408-3.118 18.517z m-19.078 8.125c-0.103 0.278-0.266 0.745-0.373 0.745H647.554c-12.514 0-23.856 2.111-33.404 11.658-9.548 9.548-13.15 19.398-13.15 31.912V792.478c0-0.556 3.516-0.983 5.134-1.73 6.644-3.067 12.374-7.229 16.829-12.454L795.07 576.6c3.463-4.06 6.32-8.6 8.36-13.6h0.637c-0.111 0-0.144-1.068-0.263-0.745zM907.198 322.739C896.741 333.196 882.919 338 869.213 338H837V535.612c0 1.402 0.167 2.808 0.277 4.22 0.403 5.172 1.737 12.253-1.296 20.48-2.38 6.459-5.44 13.775-11.14 20.454L636.874 801.734c-6.6 7.745-14.297 11.176-21.007 14.199l-2.599 1.161c-7.494 3.462-14.62 3.907-19.97 3.907-1.621 0-3.254-0.458-4.891-0.505-1.327-0.043-2.673-0.496-4.017-0.496H226.581c-22.681 0-40.452-5.546-52.214-17.302C163.63 791.951 151 777.363 151 756.559v-728.317c0-17.514 9.357-38.019 23.372-52.045C188.393-37.813 209.067-47 226.581-47h546.237c20.804 0 35.762 12.461 46.515 23.203C831.084-12.041 837 5.556 837 28.243V103h32.213c13.705 0 27.528 5.337 37.985 15.794C917.655 129.25 923 143.064 923 156.769V285.296c0 13.705-5.345 26.987-15.802 37.443zM601 787.149l1.334-0.503c5.376-2.427 8.706-3.972 10.542-6.122L796.746 563H641.233c-9.387 0-20.464 5.175-27.88 12.596C605.984 582.96 601 594.228 601 603.709v183.44z m204-758.906c0-9.523-1.463-22.521-8.324-29.382C787.1-10.715 779.947-15 772.818-15H226.581c-8.849 0-21.269 6.073-29.051 13.855-7.787 7.787-13.53 20.539-13.53 29.387V756.559c0 7.128 3.954 13.911 13.525 23.481 6.867 6.867 19.533 7.959 29.056 7.959H569v-184.291c0-18.111 8.213-37.293 21.696-50.77C604.23 539.404 623.221 531 641.233 531H805v-193H430.081c-13.705 0-27.675-4.804-38.132-15.261C381.493 312.283 376 299.001 376 285.296V156.77c0-13.705 5.493-27.519 15.949-37.976C402.406 108.337 416.376 103 430.081 103H805v-74.757zM521.136 210.182v-37.293h-22.739V279.654h53.312c9.706 0 16.641-0.696 20.804-2.081 7.039-2.348 12.593-7.201 16.652-14.565 2.981-5.549 4.477-11.579 4.477-18.09 0-5.439-0.983-10.59-2.96-15.443-1.977-4.858-4.728-8.833-8.242-11.929-3.201-2.772-6.59-4.696-10.167-5.758-3.577-1.072-8.462-1.606-14.643-1.606h-36.494z m0 19.052h30.887c5.544 0 9.445 0.852 11.683 2.557 3.305 2.667 4.968 7.311 4.968 13.927 0 7.149-2.51 11.741-7.531 13.77-1.81 0.743-4.696 1.119-8.64 1.119h-31.368l0.001-31.373zM608.044 279.654h45.3c11.317 0 20.061-1.119 26.253-3.363 11.422-4.158 19.047-11.793 22.896-22.891 2.876-8.535 4.32-17.661 4.32-27.367 0-9.607-1.391-18.675-4.163-27.216-2.782-8.749-7.364-15.203-13.765-19.366-4.058-2.563-8.514-4.299-13.367-5.204-4.853-0.905-12.248-1.36-22.174-1.36h-45.3V279.654z m22.739-19.047v-68.672h22.561c9.926 0 16.808 2.186 20.647 6.563 2.353 2.777 4.247 6.668 5.69 11.683 1.443 5.015 2.155 10.35 2.155 16.008 0 6.297-0.847 12.06-2.552 17.29-1.715 5.225-3.954 9.121-6.725 11.683-4.058 3.629-10.459 5.444-19.214 5.444h-22.562v0.001zM807.653 235.954v-19.047h-63.709v-44.019h-22.572V228.59c0.105 16.008 1.6 26.52 4.477 31.535 3.629 7.044 8.891 12.06 15.773 15.046s16.568 4.482 29.046 4.482h36.985v-19.047h-34.098c-10.564-0.214-17.342-1.067-20.333-2.563-5.972-2.458-9.068-7.897-9.278-16.327v-5.763l63.709 0.001zM493.651 579.036c-4.57 4.497-14.706 6.882-30.123 7.091-10.438 0.12-23-0.805-36.201-2.657-5.909 3.41-12.017 7.124-16.797 11.599-12.876 12.018-23.618 28.701-30.312 47.058 0.45 1.715 0.805 3.232 1.161 4.759 0 0 7.249 41.19 5.334 55.111-0.271 1.914-0.428 2.469-0.94 3.954l-0.638 1.621c-1.966 4.55-5.836 9.372-11.893 9.101l-3.556 0.125h-0.105c-6.756 0-12.269-3.463-13.712-8.629-4.404-16.213 0.136-40.468 8.356-71.877l-2.102-5.115c-5.898-14.361-13.262-28.805-19.778-41.565l-0.847-1.653c-6.841-13.399-13.065-24.779-18.692-34.412l-5.815-3.075c-0.419-0.23-10.376-5.502-12.719-6.914-19.832-11.84-32.979-25.281-35.144-35.95-0.7-3.409-0.187-7.772 3.347-9.78l5.627-2.834c2.438-1.214 5.01-1.841 7.636-1.841 14.141 0 30.531 17.593 53.114 57.025 26.086 8.493 55.791 15.554 81.815 19.434 19.831-11.171 44.223-18.921 59.619-18.921 2.74 0 5.094 0.261 7.008 0.773 2.959 0.785 5.439 2.458 6.966 4.749 2.981 4.508 3.587 10.69 2.782 17.038-0.275 1.863-1.77 4.185-3.391 5.785z m-210.989-75.173c2.563 7.05 12.761 20.982 27.843 33.324 0.941 0.774 3.274 2.96 5.418 4.99-15.763-25.145-26.326-35.156-33.261-38.314z m89.292 205.634c4.539 0 7.124-11.442 7.332-22.163 0.22-10.732-2.291-18.263-5.408-23.837-2.583 8.252-3.828 21.254-3.828 29.757 0.001-0.001-0.177 16.243 1.904 16.243z m-26.64-146.538c3.159 5.669 6.464 11.631 9.822 17.958 8.19 15.501 13.377 27.634 17.238 37.603 7.667-13.953 17.216-25.815 28.44-35.312a120.71 120.71 0 0 1 4.445-3.567c-22.845-4.507-42.571-9.998-59.945-16.682z m143.944 1.287c-1.402-0.868-5.377-1.37-7.939-1.37-8.274 0-18.504 3.775-32.833 9.925 5.502 0.408 10.554 0.607 15.083 0.607 8.285 0 10.752 0.031 18.859-2.03 8.106-2.069 8.22-6.254 6.83-7.132z"  horiz-adv-x="1024" />

    
    <glyph glyph-name="PNG" unicode="&#58887;" d="M597.059 798.5h21.273l206.727-242-5-14.448h-178L611.18 556.5l-26.121 41zM820.871 549.951c-2.251 6.11-6.424 11.552-10.415 16.233L621.57 787.13c-4.879 5.722-11.26 12.051-18.537 15.409S587.887 809 580.366 809H222.559c-13.705 0-25.414-6.762-35.87-17.219C176.231 781.325 173 766.085 173 752.38v-728.317c0-13.705 3.232-25.666 13.688-36.123S208.854-26 222.559-26h546.237c13.705 0 29.236 3.484 39.693 13.941C818.946-1.602 826 10.358 826 24.063V531.434c0 6.151-2.877 12.407-5.129 18.517z m-21.09 12.304c-0.103 0.278-0.266 0.745-0.373 0.745H643.531c-12.514 0-21.845 0.021-31.393 9.568C602.591 582.116 601 589.876 601 602.39V788.299c0-0.556 1.505-0.983 3.123-1.73 6.644-3.067 11.369-7.229 15.824-12.454L791.551 574.51c3.463-4.06 5.817-11.511 7.857-11.511h0.637c-0.112 0.001-0.145-1.067-0.264-0.744zM905.186 320.649C894.73 331.106 878.896 338 865.191 338H837V531.433c0 1.402-1.845 2.808-1.735 4.22 0.403 5.172-0.033 12.253-3.067 20.48-2.38 6.459-5.56 13.775-11.261 20.454L632.912 797.554c-6.6 7.745-14.327 11.176-21.037 14.199l-2.614 1.161c-7.494 3.462-14.627 3.907-19.977 3.907-1.621 0-3.258 1.631-4.895 1.584-1.328-0.042-2.677 1.595-4.021 1.595H222.559c-22.681 0-38.441-7.635-50.203-19.392C161.619 789.861 151 773.184 151 752.38v-728.317c0-17.514 7.345-35.929 21.361-49.955C186.382-39.903 205.044-47 222.559-47h546.237c20.804 0 37.773 10.371 48.526 21.113C829.073-14.13 837 1.377 837 24.063V103h28.191c13.705 0 29.539 3.247 39.995 13.704C915.643 127.161 923 138.884 923 152.59V281.116c0 13.705-7.357 29.077-17.814 39.533zM601 782.97l-0.677-0.503c5.376-2.427 6.936-1.883 8.771-4.032L792.724 563H637.21c-9.387 0-18.453 3.086-25.869 10.507C603.973 580.87 601 590.048 601 599.53V782.97z m204-758.907c0-9.523-3.474-20.431-10.336-27.293-9.576-9.576-18.74-11.771-25.868-11.771H222.559c-8.849 0-19.258 3.984-27.04 11.765-7.788 7.789-11.519 18.45-11.519 27.299V752.38c0 7.128 1.943 16.001 11.513 25.571C202.38 784.817 213.035 788 222.559 788H569v-188.47c0-18.111 6.202-35.204 19.684-48.681C602.219 537.314 619.199 531 637.21 531H805v-193H426.059c-13.705 0-25.664-6.894-36.121-17.351C379.482 310.193 376 294.821 376 281.116V152.59c0-13.705 3.482-25.429 13.939-35.886C400.395 106.247 412.354 103 426.059 103H805v-78.937zM512.549 206.134v-37.293h-22.734V275.606h53.307c9.706 0 16.646-0.696 20.804-2.081 7.044-2.348 12.593-7.201 16.651-14.565 2.986-5.549 4.482-11.579 4.482-18.09 0-5.439-0.988-10.59-2.965-15.443-1.972-4.858-4.722-8.833-8.242-11.929-3.201-2.772-6.589-4.696-10.161-5.758-3.577-1.072-8.462-1.606-14.649-1.606h-36.493z m0 19.052h30.892c5.544 0 9.445 0.852 11.683 2.557 3.305 2.667 4.963 7.311 4.963 13.927 0 7.149-2.51 11.741-7.526 13.77-1.815 0.743-4.696 1.119-8.64 1.119h-31.373l0.001-31.373zM621.233 247.114v-78.274h-21.771V275.606h29.135l42.419-79.555v79.555h21.609v-106.765h-27.854l-43.538 78.273zM753.604 232.225h52.345v-63.385h-47.701c-8.221 0-14.753 0.612-19.612 1.841a35.086 35.086 0 0 0-13.205 6.485c-11.202 8.64-16.808 23.529-16.808 44.657 0 13.765 2.667 25.234 8.007 34.417 3.943 6.72 9.335 11.626 16.165 14.722 6.83 3.096 15.689 4.644 26.572 4.644h46.581v-19.047H761.93c-9.503 0-16.385-2.081-20.652-6.244-5.12-4.911-7.683-13.712-7.683-26.41 0-6.511 0.664-12.379 2.003-17.609 1.334-5.23 3.174-9.126 5.523-11.683 2.024-2.348 4.827-4.058 8.404-5.125 3.572-1.067 7.975-1.6 13.205-1.6h20.647v25.291h-29.773v19.046zM274.935 492.139v64.263h64.263v-64.263h-64.263z m64.263 128.526h64.263v-64.263h-64.263v64.263z m-64.263 64.263h64.263v-64.263h-64.263v64.263z m192.789 0v-64.263h-64.263v64.263h64.263z m0-192.789h-64.263v64.263h64.263v-64.263z"  horiz-adv-x="1024" />

    
    <glyph glyph-name="PPT" unicode="&#58888;" d="M597.239 797.5h21.273l206.727-242-5-14.448h-178L611.36 555.5l-26.121 41zM822.066 553.921c-2.251 6.11-5.826 11.552-9.818 16.232L623.661 791.1c-4.879 5.722-11.11 10.066-18.388 13.424S590.277 809 582.756 809H224.949c-13.705 0-26.609-4.777-37.065-15.234C177.427 783.31 173 770.055 173 756.35v-728.317c0-13.705 4.427-27.651 14.883-38.107S211.244-26 224.949-26h546.237c13.705 0 28.041 5.469 38.498 15.925S826 14.328 826 28.033v507.37c0 6.152-1.682 12.408-3.934 18.518z m-19.895 8.334c-0.103 0.278-0.266 0.745-0.373 0.745H645.921c-12.514 0-23.04 2.006-32.588 11.553C603.786 584.101 601 593.846 601 606.36V792.269c0-0.556 2.7-0.983 4.318-1.73 6.644-3.067 11.966-7.229 16.421-12.454l171.903-201.589c3.463-4.06 6.116-2.496 8.156-13.496h0.637c-0.111 0-0.145-1.068-0.264-0.745zM906.382 322.634C895.925 333.091 881.286 338 867.581 338H837V535.403c0 1.402-0.65 2.808-0.54 4.22 0.403 5.172 0.564 12.253-2.469 20.48-2.38 6.459-5.261 13.775-10.962 20.454L635.153 801.524c-6.6 7.745-14.252 11.176-20.962 14.199l-2.576 1.161c-7.494 3.462-14.608 3.907-19.958 3.907-1.621 0-3.249-0.353-4.885-0.4-1.328-0.042-2.668-0.39-4.012-0.39H224.949c-22.681 0-39.636-5.65-51.398-17.407C162.814 791.846 151 777.153 151 756.35v-728.317c0-17.514 8.54-37.914 22.556-51.94C187.577-37.918 207.434-47 224.949-47h546.237c20.804 0 36.578 12.356 47.33 23.098C830.268-12.145 837 5.346 837 28.033V103h30.581c13.705 0 28.344 5.232 38.8 15.689C916.838 129.146 923 142.854 923 156.559V285.086c0 13.705-6.162 27.092-16.618 37.548zM601 786.94l0.518-0.503c5.376-2.427 7.533-3.868 9.369-6.017L795.114 563H639.6c-9.387 0-19.648 5.07-27.064 12.491-7.368 7.364-11.536 18.527-11.536 28.008V786.94z m204-758.907c0-9.523-2.279-22.416-9.141-29.277C786.284-10.82 778.314-15 771.186-15H224.949c-8.849 0-20.454 5.968-28.235 13.75-7.788 7.787-12.714 20.434-12.714 29.283V756.35c0 7.128 3.138 14.016 12.708 23.586 6.867 6.867 18.717 8.064 28.241 8.064H569v-184.501c0-18.111 7.397-37.188 20.879-50.666C603.414 539.299 621.589 531 639.6 531H805v-193H428.449c-13.705 0-26.859-4.909-37.316-15.366C380.677 312.178 376 298.791 376 285.086V156.56c0-13.705 4.677-27.414 15.134-37.871C401.59 108.232 414.744 103 428.449 103H805v-74.967zM523.082 209.972v-37.293h-22.734V279.444h53.307c9.706 0 16.646-0.696 20.804-2.081 7.044-2.348 12.593-7.201 16.651-14.565 2.986-5.549 4.482-11.579 4.482-18.09 0-5.439-0.988-10.59-2.965-15.443-1.972-4.858-4.722-8.833-8.242-11.929-3.201-2.772-6.589-4.696-10.161-5.758-3.577-1.072-8.462-1.606-14.649-1.606h-36.493z m0 19.052h30.892c5.544 0 9.445 0.852 11.683 2.557 3.305 2.667 4.963 7.311 4.963 13.927 0 7.149-2.51 11.741-7.526 13.77-1.815 0.743-4.696 1.119-8.64 1.119h-31.373l0.001-31.373zM632.729 209.972v-37.293h-22.734V279.444h53.307c9.706 0 16.646-0.696 20.804-2.081 7.044-2.348 12.593-7.201 16.651-14.565 2.986-5.549 4.482-11.579 4.482-18.09 0-5.439-0.988-10.59-2.965-15.443-1.972-4.858-4.722-8.833-8.242-11.929-3.201-2.772-6.589-4.696-10.161-5.758-3.577-1.072-8.462-1.606-14.649-1.606h-36.493z m0 19.052h30.892c5.544 0 9.445 0.852 11.683 2.557 3.305 2.667 4.963 7.311 4.963 13.927 0 7.149-2.51 11.741-7.526 13.77-1.815 0.743-4.696 1.119-8.64 1.119h-31.373l0.001-31.373zM743.333 260.397h-33.936v19.047h92.044v-19.047h-35.379v-87.719h-22.729v87.719zM266.544 545.22h10.711V673.746h42.842V545.22h21.421V716.588h42.842V545.22h21.421v96.395h42.842v-96.395h10.711v-10.711h-192.79V545.22z"  horiz-adv-x="1024" />

    
    <glyph glyph-name="TXT" unicode="&#58889;" d="M590.853 804.5h21.273l206.727-242-5-14.448h-178L604.974 562.5l-26.121 41zM823.557 552.752c-2.251 6.11-5.081 11.552-9.073 16.233L626.269 789.932c-4.879 5.722-10.924 10.65-18.201 14.008S593.258 809 585.737 809H227.929c-13.705 0-28.099-5.361-38.556-15.818-10.457-10.456-16.374-24.295-16.374-38v-728.317c0-13.705 5.917-27.066 16.374-37.523S214.224-26 227.929-26h546.237c13.705 0 26.551 4.884 37.008 15.341C821.631-0.202 826 13.159 826 26.865v507.37c0 6.152-0.192 12.408-2.443 18.517z m-18.405 9.503c-0.103 0.278-0.266 0.745-0.373 0.745H648.902c-12.514 0-24.531 1.422-34.078 10.969S601 592.678 601 605.192V791.101c0-0.556 4.191-0.983 5.809-1.73 6.644-3.067 12.711-7.229 17.167-12.454L796.25 575.911c3.463-4.06 6.489-12.911 8.528-12.911h0.637c-0.111 0-0.144-1.068-0.263-0.745zM907.872 322.05c-10.457 10.457-23.605 15.95-37.31 15.95H837V534.235c0 1.402 0.841 2.808 0.95 4.22 0.403 5.172 1.309 12.253-1.724 20.48-2.38 6.459-4.889 13.775-10.589 20.454L637.947 800.356c-6.6 7.745-14.159 11.176-20.869 14.199l-2.53 1.161c-7.494 3.462-14.585 3.907-19.935 3.907-1.621 0-3.237 0.231-4.874 0.184-1.328-0.042-2.656 0.194-4 0.194h-357.81c-22.681 0-41.127-6.234-52.888-17.991C164.304 791.262 151 775.985 151 755.181v-728.317c0-17.514 10.031-37.33 24.046-51.356C189.067-38.502 210.415-47 227.929-47h546.237c20.804 0 35.088 11.772 45.84 22.514C831.758-12.73 837 4.178 837 26.865V103h33.562c13.705 0 26.853 4.648 37.31 15.105C918.329 128.561 923 141.686 923 155.391V283.918c0 13.705-4.671 27.676-15.128 38.132zM601 785.771l2.008-0.503c5.376-2.427 8.279-3.283 10.114-5.433L798.094 563H642.581c-9.387 0-21.138 4.486-28.554 11.907C606.658 582.271 601 592.85 601 602.331v183.44z m204-758.906c0-9.523-0.789-21.832-7.65-28.693-9.576-9.576-16.055-13.172-23.183-13.172H227.929c-8.849 0-21.944 5.384-29.726 13.166-7.787 7.787-14.204 19.85-14.204 28.699V755.181c0 7.128 4.628 14.6 14.199 24.17 6.867 6.867 20.208 8.648 29.731 8.648H569V602.33c0-18.111 8.887-36.604 22.37-50.081 13.535-13.535 33.2-21.25 51.212-21.25H805v-193H431.43c-13.705 0-28.349-5.493-38.806-15.95C382.167 311.594 376 297.623 376 283.918v-128.526c0-13.705 6.167-26.83 16.624-37.287C403.081 107.648 417.724 103 431.43 103H805v-76.135zM538.943 259.356h-33.936v19.047h92.044v-19.047h-35.379v-87.713h-22.729v87.713zM634.825 225.582l-35.055 52.821h27.854l20.971-35.217 22.729 35.217h27.529l-36.174-52.821 36.174-53.94h-26.729l-23.529 36.65-23.053-36.65h-27.054l36.337 53.94zM734.384 259.356h-33.936v19.047h92.044v-19.047h-35.379v-87.713h-22.729v87.713zM285.591 576.618H456.96v-21.421H285.591v21.421z m0 85.684H456.96v-21.421H285.591v21.421z m0 42.842H456.96v-21.421H285.591v21.421z m107.105-107.105H285.591V619.46h107.105v-21.421z"  horiz-adv-x="1024" />

    
    </font>
</defs>
</svg>
